<mxfile host="app.diagrams.net" modified="2024-02-12T03:33:12.253Z" agent="Mozilla/5.0 (X11; Linux x86_64) AppleWebKit/537.36 (KHTML, like Gecko) Chrome/121.0.0.0 Safari/537.36" etag="DkH7ADkh0X9b4RFkEO82" version="23.1.2" type="device">
  <diagram name="Page-1" id="h7B-u63abZfphxJUQrNe">
    <mxGraphModel dx="423" dy="267" grid="1" gridSize="10" guides="1" tooltips="1" connect="1" arrows="1" fold="1" page="1" pageScale="1" pageWidth="850" pageHeight="1100" math="0" shadow="0">
      <root>
        <mxCell id="0" />
        <mxCell id="1" parent="0" />
        <mxCell id="3rs9vHmOBtsUDxQql4TI-2" value="" style="group" vertex="1" connectable="0" parent="1">
          <mxGeometry x="190" y="200" width="490" height="225" as="geometry" />
        </mxCell>
        <mxCell id="3rs9vHmOBtsUDxQql4TI-7" value="" style="group" vertex="1" connectable="0" parent="3rs9vHmOBtsUDxQql4TI-2">
          <mxGeometry width="130" height="160" as="geometry" />
        </mxCell>
        <mxCell id="3rs9vHmOBtsUDxQql4TI-3" value="&lt;font style=&quot;font-size: 20px;&quot;&gt;Digital Image&lt;/font&gt;" style="rounded=1;whiteSpace=wrap;html=1;verticalAlign=top;" vertex="1" parent="3rs9vHmOBtsUDxQql4TI-7">
          <mxGeometry width="130" height="160" as="geometry" />
        </mxCell>
        <mxCell id="3rs9vHmOBtsUDxQql4TI-6" value="" style="shape=image;verticalLabelPosition=bottom;labelBackgroundColor=default;verticalAlign=top;aspect=fixed;imageAspect=0;image=data:image/jpeg,/9j/4AAQSkZJRgABAQAAAQABAAD/2wCEAAkGBxMTEhUTExMWFhMXGR0aGBgYFxoZHRoYHhodGxoZGBgYHSggGBolHxoYITEhJSkrLi4uGB8zODMtNygtLisBCgoKDg0OGhAQGy0lHSUtLSsvLSstLS0tLS0tLSstLy0tLS0tLS0tLS0tLS0tLS0tLS0tLS0tLS0tLS0tLS0tLf/AABEIALUBFgMBIgACEQEDEQH/xAAbAAACAwEBAQAAAAAAAAAAAAADBAIFBgABB//EADoQAAECBAQEBAUDAwQCAwAAAAECEQADITEEEkFRBSJhcRMygZEGobHB8EJS0RQjYnKS4fEVgiQzsv/EABkBAAMBAQEAAAAAAAAAAAAAAAABAgMEBf/EACkRAAICAgIBAwQBBQAAAAAAAAABAhEDIRIxQQQiYRMUMlHBIyRCcYH/2gAMAwEAAhEDEQA/ANX8RTFDFKU6gEn0p01i5mDxZYuMwBIPoWMN4vBozrJD5jV6+g2iC+jP+bRdnq/VUoRpdI8kSgnQDtHTZ36QoZyHAP1baB4mflHW1aXiS5aSQSA4qIRHyzpuJCUFZpoM1Ku0V/C8PkHNmVMmuVKYsPny0agjviNf9hR6p/8A0IYnzWSA+nq9gO5MM0UfbryV07h81E7xZExJBYKQskuBoFF+sXqWEZIz8QADMVzqUUoljloFsDqCWYnoINxKXiJKs6JpyMeQpBckFiVXABAPrDas0ljcqTeyUqTMXNmLE3IoKLOxo9ldNY0GfIgXUwAvVtS594zsnBCYJoWFKB6BLqIHkJuBud4dwJWJSpaTmMshIciwZ0k7s4eBjyxUvPRaf+Rl05wb2L+XzW2g+ckUvpFVgcLLSChDApIJsWcvl6RYoJ1/BE0c8opdE1SUqIJSCoWO0EeBgxzwEBHj0GBvHoVAKieaOKog8cTAFE3jngbxzwBQR48eIZo8eAdBHjx4g8eEwBQTNEChLuwfdg8RJjzNANIR4xLKkBjzBaSmlHzWIGjExW4fBNKUiXMJcLBUoqASHKWQBSh/mLrEYlKAVKLAfaKfAYkhPLKX4TuCoh6kksHdg+sNdHRj5cQ/hTEBIkZZiQrmK1uUl2U1O+tI7HoQDmlt4iCCoCty5drQbFzxkStJAqGBLAuQC7XvEcMtK3QFiYlWbTR2bMKUtvDGm1s9wa7gJyeICsKBcZjcnrURX/EOHytMEwoc1UGYqA5X2BI+QgCsCpKlyc5SlWYyVbFXmQelKevSD4qeZiMgQRlIBdtKMGPW5ho0jH3WixxU8rkuz0Se7moprFVj5ixg5oT5kHlCf2gggGAYbEZJUyWtRBPlNGH+Pdx84axAdWQOfEG9nrDopY+Ovmy/wqyUJJ1SPpHQlwKaTKAN0kp9o6JZyyVSaCcR4aoz56s+YKSwS5BCjoTsR7ViUlK3W5SFlmDvlTsR0JNdYuMd5zFLOlzVLOU5U0rQmhDhmsQ49IlEYpcohJUokKCnJCiQqncNXS0HNE8zq3peu35aAcQxORIbzKISnuf4vFZw/Fz5bpxAFEvnBdzW1PVtHikjRQlJWW+KWhilZDKoxN3jNzJH9MtSTnKJhzPUjNoM1xu3SI4TDLWUqAPhrvmIo2nUk6941Bl6EAj7wdGrrE67K3hykeH4xUFlicw+bAs1thDcnEABAJdx5tHDXPrFDxHEGXiNVSiwysGzE2fXWnURfKlhYAyjI5BSoaVFu/1eBk5I0k35F8TKmGY5V/bS6gRRizAH92p9YV+HEziVzJpYKJCUAW5iXfUkGIcZl+GESpaSErJzMSwAFz0dh6w2MakIyJzAgCuU0G7mkHgqrhryWEhYIzAM+4Y+0EEeAx68I5n2SEdCcziMsBwoK7EH52hAcXopQJ7Up7gM/V4KLjiky7eOBjIJ48uoK1ByWdAUR2yUA7x2I4xNZkhSyK0OT6D7w+LNftJmvePCqMViMbNKCpVFkWKzT0AhUYpKkgLADM6sxv0cvD4lL0b/AGb7xBHGYNxGAxGLUlJMtKFEDWn+3c6RPDY+YACqmYVRqP8AbrBxK+y+TdGen9w9xEf6lP7k+4jGYnETCzAZQHLmvzvHsjiQSMwCSOjHXUCDiP7PXZsJmMlpDqmIA6qAiQxCCaKB9fvGHxXFfEUQlMkkpqlQFe5YsYjwqYZblSkEPoKDVhVz3g4h9nrZvniKlAEDeKXB8RQfIsP+0nT1tFlIxqF0Cg+38RNHNLFKIkCTPUQysoYB7GlTtr7RYy5SUvlAGYuepO8U/wAQSwlpiQ8x+VIoVKY9QKB70hTDzpqEBCVucqjzKc00dqmK7NuHNJos8NLzoKCl0glibM5YpP7g30iRKJABJSlADKJoSaN96dYS/rZ8tCQMOW/Uc4oNVMA57R4rGS8Qnw1nK5AIUGCtR4Z1PbaEDi/+DnGi0vMwLMW9f5YxRYXEzFyVZpIkqKgFV6vQi9hXrGgmYZJkmWkuAnLd7Bq9YzPCsQ6Aicpfih0hWbTXlJsAKsIpGmFe3/RDwSEJGZR6qJJqdzfv0i4wclYmlT8iUEN/nRi7bPC0sVL2BP8AtcEFtNYsOHFyRop2+kNmuV+0NwJ/DJNysn5COjuBBkrQT5Vn2NR946IZx5PyYf4kxZTNDJIZdVWBHUxnpnHZniPndz5UggITd6s/U1jXcfnIPiJICgAczh0hq838RnsHwzxnmzFIyqTlyIFkXyqO8C6H6eUfppyQWTJmz5yZk1GRMtXIHHMG8zXBdhFojADwygkrBc81dXHtQCKH4h+JCkS0yKqmEZVKBAuwBBD1MW2AnTZqHOVJzCxJ5RcWBBprvAwmpUm9IQmzilOeT3VKWKsL0v6wH/z06aspkoygpGQrDElndn8r0eNHi5KVJ5gD8vY6RXcO4dL8TxSkeIkZQqvl6Cwh2hxyRa5NbPJHB+V5jTJgJUkK8oNxYabwLieJVLWkCb/dUWys4CBUkIFbOH3MXM+ZlSSASdANT307wKXg0pVnA5soS5JJYOwc9zCM1kt3IBxHA+KkKBZYBymuoqCNRb2ioPC5yciEsEOTMJ1Ju21axpJswC/52is4pjUgBKj5iAyTZ61IqLdIEysU59IYGMQOVPMQNLADc2hLF456OD0BbTWte0VJ4jm5FU0CUOQBo6iBVvrE5GGblypSkVDVJfen8xVG6wJbYIzA6ZaSpOjBIZtuke4nDF2opq8yqA9nETRg82ULUM6S6sjl2Nlf4tS0AxEkrmVChLTWhCc2wJufysFmykr0DWhIGZi/+KWDfUwnPWoHkBAcWBJbcxdiZLFQkqNKIZr6aQfGYNMwpCSUdAka/SHZf1a7RnsMuYVElID0S1So7mlB6xHFYRcyiwhOWoWogV1LGzRof6dUpJGc0/dV/WEpE+ZLfxJctWuYJYt1zEiCw+o5fiCw+DkmWFuiapNUrSpKj3BdgYUMzKQoeIrMQKgkpPVgAIdxE6XMlkeAnLctS1dqekHkYshIAQgbFxQdE/zACckU2KUpzmYD/VU+jUj2RMdiApIysQzv1rrFp/VYNJPiKK13JIUfZqQBM/BrVnQpaCfMCFMR/pVQdxBZSyPrixbiSEGX4ZWMy/KCQB6kVAhReAmy+XxZKkMGyglQV63h/HJkTcyUgJmMyFWT61hIpygJUoPazOf8Q+/WGXEMuUoAPMUlTW0O5y6h9QYdwWJmKylcxLCtKq99OxEIyJScoAmNl/Qaf7S7QYfqoVJyuCminaoys79nMApKy+xczxEAO5FaUpsa3aKWbmmzEAHKQeQlyy9Crpo0eyZpypqVABsxu3+TfxBMHMX4gmrAUMwHJcl2zEevyhUZKHBMtjPnJATNUEmxUH94DgJCFziHJMogjQPVg2oBc+gh/i2KCBLsQtaU1bXWvaE1IEid41kTKENY3DnTb2ibOZSuNeWHQFZjLmIJQFJKVJs4Yspq3im4jhvCn5yKO6VM7Pdn1uIup3HEeVAzrZ2HXfaKvG8WE9OTIfESoOgVOV2JqBuD6Q1ZeLkpW1ryVWFxBnLnJVMKs6Wq4yghgzB2zRoOBJKUEKVzJTQ1a1+tYreH8H/uomSiMtUTkPoQedPVwKd4a4lJyIVKU5BcpUVEA9FFMBeRqTcUS+EJi/EmJmklZAUToam2wqzdI6J/DgT4ipgz8yAkUJSyTvZ6x0DOfN+ZqPiaWoy5olpBXlOUGxOjtGPw6sZygIISNGYeu8b7H+cxRYThmVjMmrWvNmDqYP8AtA1HSIi9HP6bMo46ZVYDgGbEJxC0ZMtUod+b9x2GwjSLLAnYP8o9WWFn6CJNSAU8jm7ZScNwq1vMXMJCjmAeiaMQOlH9Yt0BqAaXipfwJ55mkrSTlay3HM+2jRcCGysrbd+D0JhTHY9MtgxUo2SKnudgN4X4txyXJKZbvNUwSgVNaAqbypfeKjFcRDFT5mooitXswv12gSHiwuW30OYvHrCgE+Y3JoANQnUntA0lCQScoc1J1ozkj2gSMPLqsLzKWHzODy7jVvlCsmUhK1FKkrWoBgUhgHqpSmqdQ92pFHUoxrQWdMykCXLUVH9RoG3d3hidMCctjWwq56wvPxDul1KbUJvagbX1gU+eMjuGsQFOerlNoDRRsclzQlJCQlNXIAuTqWuX3hYzSkXAvUhyRvQfWE5czIlLFKc1EipIA1rUmATp3LmSpXICVJK3zCwLEEirUeHRax0WapugU/Un7CFJ+IUbKUnqksejm8J4LGAJJmZBMHmSlQUQTYEg/KB4jEGzsHdu+51hmsYJsYkzZuZRmTEFLBINc2YnRjRh84tMBKSsnxV50pS/Mae3RopZSgoZkqLJISpBSwzVOYHVwQKbRdYib4OFemdYZ0juwPZJZ4TM8i1S8lbivi2YCpKUICQ4Tc00Og9Iz82eqYCtS3L21PWAEc2/5aJy5YcFThNbM7jYHYwzrhjjBa7PJabuCGZq33pcNSIicQdYZUl82UM1TWwf53EcVpVlDJAykLJJzZv0lO4NiKQFXRGVim0i3TKTPyKPh5gWsAoO4zOSx0dqxQTEsT/MNJxDpAygbwwnGx+eMpWhYUggODQhZOqGf3IpARMo4c1FzWpuGaJycchf9laGUlByre5vlI1tC8yWUizPATBXafZYSsShSucqSp6qFmIZz11gylKQQQGeygAUkuxroehilCl3QSGPMLgjYg3h7h+OI/tGspdD/iq6VdnZ+8BE4Vsv8JigopQtGdKvM4BCSGIJBNtiBpFngsNNUgy8QmUpBtldsr0BSfTWMnIwaHNSkqFv0u1SmtN27xpuB8ZQpBSSykMkh9bCIkjhz42lcS1lSZcsMlKU9g0J8RwqVpK0MVgGoZzvUdo8XhVsxyqGd2NaG5rZukLycAylCUVoCq0SAnZgSHvpCOeKp3YnwTEpzFnAAIXTUWpvF+CnMeZJL2cOIouN4NAJQapWkFrOQtOo6sW1rCWAlInrUqYiYkoXlGgUp2qLkdYdWbTip++6Nkg6No/SOhDgC15FImF1IUR/6moHtHRLOOap0aTH+cwopMOY7zmFVRKOWHRAx4oWrCnGMeJEsrZ7AAbm0TkTsyQpq5bbEh2+kM34OuRl/iHjGZafCf8AtLT4hKaKQVVCSTWgf0jULxiAkKzBlWO8ZUYdU5pISoJTQkgtW5B6feGeM4xalITLbwklidCRS+gT9e0U0dssUXxigEzC+JNUsgeYKJPTypHQUru8OjE+GAlKQkaJZvYaudYXQHJ5SENez9B94JOn5R4hZxYCuV6B+sM0a6R5g5BSFLXlzzB5QLf6jt0hBeMJl5ZIbm55imru2kd5VBKGUsllLLnlJtsE3hLG+ISMi0pSFUBD0BslIFTDSNY47ex6RMSZhUsgo8qJYoA9ydqfWFDiZZUpKU8qf0oAFH1fTeFUS1ISCSovV1OD3r1j3MgKysDmD2Z+pb1h0bLGlsniUFSgtaS6S4zNQnVPWOlTmehqCmhrXaPUrALFyHb06QYAOCjykUaxpcQy9LTEsTJSkZFS1TAlT6k5mcEN6d6wReAWVUqaWrfcC0PIwhzKmVzFnc2YU+Rj3DySCCXBehSSKMzFrwiFOuiU6SmVLQh3IdSjo8dh5H/xp2UuVnMxvlypsDakGlqsCLc3oLfWOOLQqYg1Of8AaTQsWqNCPSkIyd/yZRMsVo50rYwVSFKLrUpSurn5mNeOFrEtvGJU5JzJBp+06inziuPDgQVpIUNG6bdIaZtD1EZGffKFhg6qPqA4JHyHtCxQRtGh/oAtIKXBJZlUObbYxRY6WUqy2OrwzeEoy6F2G0eyWB9f+oImBzE0cekBZYSJazzgFrki3V4EZgKUpANXILEvXf1juD4lKJicymSoZV9HofnWLX+lIlpWZmZTnKdEgWFHBr9YDJyqVFGlBf8AN7d4NLKgXaghnGLCgVqFhU0p1MLJAUmlUqo4Y+p6QF3os5cxJSUk6A7MdRXZ4UwqhJWVBKisKBd27PoUn5GF/CCZqZtVpUllJPKXDh20JKUn2hvimCUh1AqXLbOAwcCjsdQxtAYvembZC/FXKUnygPmre2XYw3ilFAz5qCrUAPq2/wBYp/haeSjKokKTzDqkjQaiLwAqzBQGQsw1I1zAxk+zycq4zrwir4pOClIS3mDv0BFIbw2HBAUp3Be+u8K8awwzJmZmA5W0c2Pu0KyMWUSQtbJ5gJhL2JZx1h+C6uC4jXw/LyKnVJdQuGNSo/ePI6TPTKmlRJCClgbvYjvr7mOgZGSNuzXY7zmFTDWO85hVRiEefDoFNP4RSIzFF0gWOuzfzHqEZXqTmL1qz6DYR6owzYBi5wSD+5qDWMrPwoCEpCiFBQOVOoqwUdiawwgKPjTioJz0B/Ym2v6ohhMamYhWUnOQ1bs5AJPYRaO/FDgjsRPWEEJGZfKGBZgTUh7ip9oDMm+GlKVkGYovW9e/0ho1VlpmFT2tCuJw0tytQUqnINidesM2VWV7ZcygsrKgHDMEIF23NBWA4SciY9Tykj1h+TNlhIyqCVp/cps2/wA9IliQVAqC0KBLAhQIJ1bLrDs3UqdCcwh6AqHW/d9oZwWGCgFMCnVil3/bQkgPBkypUqUUlBzmpJNCpupqOkQwyABmUlidkhL7O33MAnNtaJpkS1cwTMll6pUQr1GUneCIkhKaFktqCW+7fxEZUxYYlQZ/LSlr70+sClmYBzkFWp+gAeEQk/2Mz1FhlVf2IaBTVmwY7t9HgYJKQRQvXc111ZoKhZSqv/B6wxpUSlKYM1TRtkm7wGRmKilKMqBR7crMMrbMzHePQtlZiCCTSh9xFmg3Y9t3hEydAxPTYOSwFz6u9CaQvMxCScqE2p0/47RLCyg5KTWr9z8mEeSpBqxJyitLvsRASlFEhhwUv+oEHl0ILs/WvvFN8TyQtKJqQxNFBmObqNIuMDPzEIAUoamjDZ3Ln0j3GSJcxK0KZAoU6MRu/wCNCscZOE7ZikMzRGaja0TxEgpJBan/AC5f2gZzEWiz01sH4Yr9YLhMctFHdNiNP++seCUYMSlNCFGhYAhnNObdoBNaCIxKCDQklnrRncuDfvEStDuLsRdh3ISzkQASkFJOY5wfK1COinv6QNOGJ8t6lnqwuW2EBOhrNRri0WUvFtISl3KV63ykW7RToVpDkpDFOayrPrv3gCUU+yzwmNykEAumoCdRqltdY1pw4UtE1KmDVFaihBvQhvrGFViAhQYh2dLd3r7xo+ITwuQhaWCyWYdQQfVoTRw+px200F43OCB4nNMSQUkuClJflJFhdnA0EerleIhgstQpDtQGx3GhhHg4MtSs4OUs2xap10bbWB8MdOfPyp8ySLMage9GhURw4ppeCwxSTMBSoKSpKgHFHDabit+kdE8biSlQrXLoHpoflHkFErHezbY4c5hZQhrHecwqqMkeNDpA1ptelbt77iKD4j4hkUhOdruBqSGA6amLfieK8OWtbOUgkDc6D3jBS8aVgzFgLzKplrmOa6dgAIuKO/0uLk+T6RdTrJBaleiep+cLywlClqS5MzUWA09IdVJ/tkFJU7MlXNs7v+VgM7B5ySVEJykJSlgmxBdqn6RR1KSJTZIJzMQ430d/tFcuavxFJYgMGLUerhzTb3h+bPGVKSpqt8ojOAGpPZvykBpB12JS8JlBACVsa5gOm8Ew05lTJKMOhEtDKQXYKJcqLaN94YVjXozn9x0/mBTZo1SASGcsOwD7wxtOXZwwpqbuGKbtW7XJ2j1UhRYHlQHat+4NXgE+YVqTlS5DOzUOx1ETlkZ2CemvrCKp9nmDxGa4Y2AOp3G8BXOr5XOYZertzdAHPtDqmPOQkLAYMdNWH3hdKMpJCRcVOg6dKwwi7HJaCstLAtUlVh869oiEaXIGpFetqwBSiKgEnbQ9PWI4dSjSYnIWB3rVwGOwEImmEnzjyHJmLgaDL1qa+kGz1AqDowJrasLLnOSyXALA9emoEGkqWWHl0CiHbUiuhFIByVIFhM6HC0glRLKpY2trDEoUJDg/6iPkxeITUEm56Dp2+UFXWlXa1qavo8Ml7FsHh5oTmRuPUPWm0OY7CkqC0qozKSa/MwnIx6RQzJYayUKJ92Ye0eT5ypstSUnmLsxICtMqgXd/vC2JqTfI4czylyc6cxAWGBQKZWAHNrCf9DJK/DzLC9lJIvaotaGp6CcoRlTQOl2UK1sbgw9/R5w5nKCxYk6dYLK5cfJm8ThCi4I9L9jFfiZBdzGgnypstICGnJfmSTYaqSdGhPEYdyb97/8AVIqzqhlvspkGml7axNynmBY1FNtfSJ4nD5VCxqH7awIhyWsLdoDbTAg1jRYHConIlrN5KsvcLNEvu/1jO5axsPh6ehGHJIfnA0or9MJmPqG+Oiok4YFSpi0+RwljcEke5pSPZmLBmJQCQhq1udCRuA9YZQUqJltzpcnuKp7EXikwODEtahNUSoFxldTjZhYsR6wyU97NhJlBbhCTlCCB1O8QVLCguWpXOgoJSGBAd6gWDvEPhvFLK5iUpDAJy5hUh6k6jVhDaUJTOnro6wpJ7gBh7RJySbUmiHxFgyvw0pSFHK9Tp+GOieMmEBCkmwIpsWOnaOhWRHlWjc47zGFFQ3j/ADGEcRMCUkmwBJ7CM0ePjVpGe+IcU8xKAaJ5ld2oPZz7QphMiQxZIJtskM0VoxBUkqJGaZzM29foRB5clE1SULdJUAvKaHKnSnp7xrVI9tY1CFD8iQoKUXdK9SaACzQKZNdgKAUD9BoNN4sMqTmSKsQSxdq2Ya/zCU9Lq5WpUE0u4NvysIiDtgQQoVDVsdtG2MRVONiABap30fT0iJKiWFOjF2+2sEKwQQAOj1r9jFG1UDlyg5BAY9GrpERJBPOSRqNtRqwPaBLKUrDumlC5NSdn73gi8UAtSXNnFm0sBcneAqmMKm0dCb3Ny23URBMwNVAu17N3+0SwpAGVjQa6iATbjIUsWNXL7gF2pCJSV0FmCxFG3APz0EBXOaqiQAeh6VhjxNGDt7HbaFJ6XsUkNZqjr1MMqJKQSCTW59Kax6oKOWj5utuv0gUtZGXruIYWKVNC29CNt4CmqZIymIf9P56xErU2XrEwtOVyXYdqk/SAzZpSCQBpXbX+YCFvsIVGtK6fzCPEZoShTgBRoBmdwXcmtWHzhyctpSlgMctD6aRl0bk11e5gRrihy2TQmjtSz2r9+0WHDZuQkktQs9WLEAt3MVyVFmJ5XoOu7QZM/c0EM6JRtUX+KS9QgJDHmCgbj912o7QvieIMQynADfzcV9Yp52KVu+ghdSFUJMFGcMKXZcnjyk0QkZf2sK+9oDI43mWnx5aFj9wDKT2aKtA94NkbmFxaCingh+i94pNkzAEIWc5codJGYAVQFNVQvGbmoqGBD6O9Xbp3i24ZxFJGSah2VmSoXSreKzFhzeBE4oyjcWCmJGcgF6xdyZBQFSi4BCF21FSR0bWK/hGCMxeyU1Uo2A1JiwlY7+6uY5KFgoQGsCABQ6Glt4Ayy3xQL+lUZvJbM8w/4hLP1egjZSOEysr5RmIqpmU5rfTtFJwrDHxAch8wJIqG0B0YX9BGq8dObI/Mzt03iZM8/wBVkknUTKcFSiVip2c5CWSHspiTf1Hd4HOw5SqYsVzqKh3qDV9aRo+I8IRNOZylVKj+DFdPkhK8gqHAr1cqPe0CYQyRk+S78i01QTKSjY11rVxHRHjEsE5VCl2+lo6A0R9Bx/nMZr4ox4RLEtiVTTkpoDck6RpMd5zHz/iONXMnzBlZIUyFHdLinQGsZwVnl+jx8mvg9/8AFpKQak5QaFrVSB8hE+HSilRmrIzFiR+ylUjcPBsLLZKACeUCh1p/yIjiJiUuCoAlNm2/UT+WjSz0m29BpGVJWoUzCqrvT+PpCmFlAAgkEoDChZqXPvBRJCQkFyz5iTU3rTW8LImAmjjpvAVGPdBVyVmjsAHJGnTWrQGaQzi9y7j+I5WJIU7Kqbbe0SmB0k1fZ4NlpNdi0qcKBQylT8rBVBqDpHs+YhLKqTEkTwpAIYio2dix9XiPhqd0pZrgG/2ii18hU4gHQsRa0QOYOE1AsKBjeJYFSvDT4gCVa61fePJl21PqD3hCXZFMw6lgQD+NAEzRnUkAum5Nq7bwRSAGYln/AAfOJJQmtOx3/G+cMvQFU4nlAJezab+kGLlSUpLsPmbn0+0RAUl2zAOX099YXyknN5X2P3EBVIsp+FJSUvYglq1FWf5xFUoNWx+9IJLncpQKkejEtVj0N4HLmEkJA5auS35t84RjsBiJuZOXQukA0qBYPfvFAJaQpn0v1a3vGtmSE5MxDmrbOzBoyKZYALrBUVsAP26lW1YEbYZXpHstIJTmsCHHR49xCApyAwq1dNIYwGHQonOsJA3JGtWpXtCqyAp7pe0M2tXR6Ehga5tdokVFmekermEkqLB9gwHpHk2UsJCikhKrHeGUGSiV4RJUoTAaDQin/MRWrQ7QTGZClKhkBoMoBBtzZtLsxG8A8RVlafSAmDsGsMYnIkKmKCEipLCBzjWLngcr+3MUkc1EAvYKoS8IMkuMbGcBhkSUYlOfMVctWAoCCAX3JEBGAUsS6ssEZUgUbKzqJFWvTaDLlyTMSMu+QFJ5iCylE6FyTmN4fEpQmJmZgUhVTrsR1DQjhut+WWGJmiUJaUqAdaU1uaiEMDInpxK5hQSCFNUMbct6VasSxMhU7IAQoKmBbghkoSXpq7t6xoVLShLlgkezWiGccp8FXliJxWVRSVAqJSQnUOWIexisxdZqqsSulLFhp/6xaYyQKkM6hyig5wHzA3zWr0hThhTNWFFLKDnsTSGh42knJFfxXhxxE8y0rylKQon2H52jodw2DVNXMWJq5ZzMchv37feOgsJ5eLqzV8WmZc6tACd/aMVKwOfw5hL5UkAbqJFe/wDJjb8QDqUN6RiZuIQSUoWazClNCPKOYCle8TEw9G/bS7GZoyUuSraz6Ftg8Qn4Z2KkjMzPoLH7fOGJ00AJzUKlZR1UXo/tAZyweV3WnT+fa8UdUWwM1rXL7s5+5hVRJelPwQWbM5iBRwCk66Pfu0RSgKroLn6RRvHR54AApfU/Xv2hZYUDofUH/qConMSGzHWu7WiMpROhYabQGitdkZFmoKkkM7ncxGWkhYOnXt17w2WNiKwNagAx9/o0AcrAknMQAS348e0DvqfztHsmcAGFzW4PvtAVBK1MQrvVh6QDDS0vUezflYhiS4KWYUd3r0DdoZmrCjcfm0CWojfZhqbfzAC32Q8XORu3z+8SnLNEg22+VoHLkKegyu7Uo/Q7PpB5MwpSoKUH0ffTvADrweDDKQeYtmGzuKexjlJKjQv0NNHvpcQc4rxEoKxlUmqg4PzBIA6PHKnJVlA8xGYgaDR4Vkcn+hrCrCgzcwyhQamZrA6sNqUjMfEeGlyphSgAG9z3tGo4Vmz1ubsX7Aeje0UPxRI8ZCZyQQQpSFOGsWf5QLsnDLjloo5ajHoiCVuqlhR4NIIBJNWHL1MUejZ4ipqWhwTXIl5uTMBmqzCgYGw7bvCktmJIL/SOSIYnGwmLklKiLtsQfmIiZZKczhrXrRnYa3HvEZ0M4LmSpLgUeqSTcUBHlBIS56QCbaQrMFIt/htmm5qICMz6AigJ3uYqJm8OfD04+LkZ0zEqQro4cH5N6wmRn3Bmi+HsPLUXcqKA1XYbXvvAOOz/AAVlKQa1NbJ1KQNYsfh1aA6UqGbKCpOxcuSepirx026ZlFGYwWxcKNAWuRmy+0Suzgi7yN+C6+G56MikpU4SXrRgqv1eGJmCC151uQLIdwCNWFC/WKfgSlyzMRMObKDVgymJemlNIdwGMM6qEmWygSAQygTUkEbfWE1swyQam5Ib4m+ZDU8wHcgN2hXCr8FbKPmDuaU1fqIhx7EnxpCEjMoKzFNLAXc63gmMwpzBRUVCpyq2LO/uB6QIIr2pPyN8HYGYOoV0ZQp9I6K3B43w1qLcvlbqGb5Ex0JozyY3yNZj5wC1A0rrR76+kZn4hHiIRMlMoylBRFuU3P3iPx1xpcuaZaUBYoWYO79TDmA4jLxKFBJa6S1RsQ7fKElSsjFjlCEZiWEx5mJQpTJo5I5g4reBLkkgFQBUTUij7UMJ8LwqsOVSz/8AWmwUQS5BdQO1qdIJOxK2IUpj+mj03KaV+kWkdiju0EKhSpADuBX0IgUyUCA4cFTjo3lcQPHlypqJuHYd/vDAS8sBFSCAagUP2gNWqSFFSnINXGzVG3TT2hhtheAhDgBr2U4jsTiCAKKZxUfXtDLewcyq8psRRjzeo2aJYmWlmI6dxEAgZs4bMQzuTSIliAM0BSPJXIzAAH1iSwoJoQL1UWB6BgXaFFTQBU9TTr0vHkzKfNWn4IZfEZw6nS/6vltQEQ1IKlOUgkC5NB1NrRVqxKWykU1YkE+ukFn8aWvlByptlSAzbEtWAmUJPpFihJA8pNHo7AbttCs6SFkMpipvcXYsWgUji83NSYw15QXp2eHcMihWlGZT8z5Q5oCRlOxf0MLohqUexgJSiWamtHa1GcUeAIkgghCebK6V6qLa7W+cHnzAgZVBTEsMoe7VeDYnCFMt1TUy3LBwG1YOS5JhWY867G8KWSV3ZJ0F7/zFZ8WFKZAKbKVm+UFwM6UgnDpOYnzF3Ym79axVfHGMtKFkivrCXYsUW8qM1IyeGCFHOVF0tQJale8FC3o1or8KaM0OoPvFnpxDhUey2zMo0gSgaPa8PcQmSimX4aFBhzEi50rDG5eBRRjxCw/Rj9P5gdI8C4BjBNCI94bMKJqFbLSfR2PyJgAWYipTBR6QEvao2PwtiEzVzlJUCDQkXv8A9xZYzg2ZecHqx/cBQv3aM78D4YoKTlyuCCBV3rU7vG4JFBqYybpnkZ5Shk1+jMy8yZpzDKVKHLcGofpZ/eNCZCQtJEsO3mDAhrQhxPhhUoLTdw47bRbBPu0DZnmyKSTRlMclSsd4gtJCSXNMpHM3Wvyi+xyQpKlJNWb0cGvqHiYwwCClZzZnDtVlaQvMkiVLW5FWDu1GADn0gsHNSr40U05RIc3JBKdQSkf8x0MzpXNSob/o/WOijp4p7Gfj+QlSmIub2PakA4HhsqwEqISNA1SQ9d46Ohf4mON/20SfxLLdCZoJCnCCAbpKmL9djCWLkeGUqClEkBNS7XqKR0dAh4G3EWnzQSDl9BFjIwqQEqFFXJ3La9hSOjoGa5G00hDEBkoIpcQzOlgO9e9q3pHkdDLsUSu/Y/WEJ2vVTekex0NGsWwM9TAtRqXhAqMdHQzdM8UqnpEZajmABZ46OhCtjWAVzgdWi24nI8FcnKXz5TzMSOYa9nHrHR0Js580no0a0eKhJ8pYrBGhqLG4hGbilkqlZqoSSFkAnM1C3rHR0JHHDyM8NRllZ6FWTM7AEqY1MYXik9UyY6jV46OgidPpd2xYyQFBoZUlo6OijrtnKVDfDZQWvIpyCDralI6Ohik3QmJd+kRSmgjo6ApNnqjCk51LTLdgWc9zHsdAKTZtvguepRmoUzS1AJYNRtdzGrKA4LVFjHR0ZS7PF9S/6jJGIBVWj2OhGBmeKLWicoBatwxZniGC4uqZIV4gCjmy+1i28dHRa6PTik8SbOmrLVY9xp6R0dHQDs//2Q==;" vertex="1" parent="3rs9vHmOBtsUDxQql4TI-7">
          <mxGeometry x="10" y="70" width="109.05" height="71" as="geometry" />
        </mxCell>
        <mxCell id="3rs9vHmOBtsUDxQql4TI-47" value="" style="endArrow=classic;html=1;rounded=0;exitX=1;exitY=0.5;exitDx=0;exitDy=0;strokeWidth=6;" edge="1" parent="3rs9vHmOBtsUDxQql4TI-2">
          <mxGeometry width="50" height="50" relative="1" as="geometry">
            <mxPoint x="130" y="79.75" as="sourcePoint" />
            <mxPoint x="180" y="80.25" as="targetPoint" />
          </mxGeometry>
        </mxCell>
        <mxCell id="3rs9vHmOBtsUDxQql4TI-14" value="" style="group" vertex="1" connectable="0" parent="3rs9vHmOBtsUDxQql4TI-2">
          <mxGeometry x="180" width="310" height="225" as="geometry" />
        </mxCell>
        <mxCell id="3rs9vHmOBtsUDxQql4TI-15" value="" style="group" vertex="1" connectable="0" parent="3rs9vHmOBtsUDxQql4TI-14">
          <mxGeometry width="130" height="160" as="geometry" />
        </mxCell>
        <mxCell id="3rs9vHmOBtsUDxQql4TI-20" value="" style="group" vertex="1" connectable="0" parent="3rs9vHmOBtsUDxQql4TI-15">
          <mxGeometry width="130" height="160" as="geometry" />
        </mxCell>
        <mxCell id="3rs9vHmOBtsUDxQql4TI-16" value="&lt;font style=&quot;font-size: 20px;&quot;&gt;Software System&lt;/font&gt;" style="rounded=1;whiteSpace=wrap;html=1;verticalAlign=top;" vertex="1" parent="3rs9vHmOBtsUDxQql4TI-20">
          <mxGeometry width="130" height="160" as="geometry" />
        </mxCell>
        <mxCell id="3rs9vHmOBtsUDxQql4TI-19" value="" style="shape=image;verticalLabelPosition=bottom;labelBackgroundColor=default;verticalAlign=top;aspect=fixed;imageAspect=0;image=data:image/jpeg,/9j/4AAQSkZJRgABAQAAAQABAAD/2wCEAAkGBxMSEhISEhMWFRUWFxgXFRgYGBgZFxYaFxoZGBsbGRkYICghGxslHR0VIj0hJSorLi4uGyAzODMtNygtLisBCgoKDg0OGxAQGy0lICM3NSsuLy8wLy8wLSsvLS8tLystLy0tLS0tLy0tLSstLS0tLS0tLS0tLS0tLS0tLS0tLf/AABEIAK8BIAMBIgACEQEDEQH/xAAcAAEAAgMBAQEAAAAAAAAAAAAABAUCAwYBBwj/xABLEAACAQMCAwQFBgsFBQkAAAABAgMABBESIQUxQRMiUWEGFDJxgSNSVJGT0gcVM0JTYpKhsdHTJGOClPA0Q3Lh4xZEdIOjs8Hi8f/EABoBAQEBAQEBAQAAAAAAAAAAAAACAQMEBQb/xAAtEQACAgIBAgQEBgMAAAAAAAAAAQIREiExA1EiQWGxBBNx8BQykdHh8UKBwf/aAAwDAQACEQMRAD8A4mlKV98/MilKUApSlAKUpQClKUApSlAKUpQClKUApSlAKUpQClKUApSlAKUpQClKUApSlAKUpQClKUApSlAKUpQClKUApSlAKUpQClKUApSlAKUpQClKUApSlAKUpQClKUApSlAKUpQClKUApSlAKUpQClKUApSlAKUpQClKUApSlAKUpQClKUAryvatPRzi/qdxHcBFkK57rbcwRscHB88Vkm0tGxSb2VdZBcYJBwfqOOeDVxxsesvLdwgaWOuSMDvQk88ge0mfzx474NWVvxo3VtFw2RVjEfeSUY2KBtnU9ME5K7+R3FQ5uk6+voWox3v6HJ0qwk4JcA7Qu46Mil0YdCrKMEVieD3P0eb7N/5Vdo50QaVZPwefSoFtNq6ns3/lXS+jVqlq6PLZTXDMjK6NEdMZJBBGpcHbI+PwqZTpWtlRim6bo4nc569TWUSnchchdztkAZxv5ZIrsIOFnTO/qaoVGVTFydecnA7492wqvhtWAJ/FratsDF1g7537+KKYpdznCa23EahiI21qOTaSM7b7Hlvmr3iF6UZzPYRq0gIy3agbYBK97HxX66yteHLIizQr2RY6Ozdu5If7qRt87ey3ngnlTI3EpoeHu0Mk4xojKhueRq2HwqZwmwQpI80crLo7jICQDv7WOXTntzq24TcXduDaQvGBcFiysDrjK7HPVdgPHl0q+4T63FHNE7dpkZDgE6ARj/45Y2walzYpHI+jPoxJeGTDCNUwCSCTk8gBt9dar70dlhknjcqDCofcka1IyCmRv/Par7g/Gp0uGBl0phh30JWRkPJTtvz3z8K7mDgy8SiSe7wdiFCZXugkd4g55gnbFRPquDt8F9Pp56XJ8dl4ROsXbNC6x506ipAz8f48qhV9xFqsLmCVnmt5RqRJE7RY2Q5YFsZwcqRq6q1fOfSH0b7yNbxOpkY6ISrdppOSG07kDA+GRW9PrZPZkunXBylKznhZGKOpVlOGUjBB8CDyrCu5yFKUoBSlKAUpSgFKUoBSlbrq0kiOmWN42wCA6lSQeuGHKlijTV96Ocagt4rlJrVZ2lXCMcdzYjmdwM4OV3yPdihpUyipKmVGTi7RK7eP9CP23rZNhMa7Yrkal1GRcg8iM8x51Brp+LcebiQjScpHLGCImHdjfVjKvn2WJAw3s9CBzrJNprsUqafco1ni6w4HXDtn4Z2zVpwWf1KaK77MTxd7STsNwR1B0uPjVe3BLkf92m+zc/vAqRBZ3ybLDcADIx2bld9zsRjnSVNUZFtOyPxHiSyzSS9kiB3LaRnAyc4/0BWD250LI0TJG5ISTS2kkdMnZvh4VYdnf/oZvsP/AKVN4je8Snto7WSCUxxnIxA4Y4BABIGMDJ5AVl1SRunbZzsUjxOGVirDdWB/1keVTLxrdzqOqNvzhGitGT4qC66P+HceGOVZR8Gugp/s0pHgY35+IGM1j+Krj6HJ9lLVaJPLazjkOlHnYgE4ES7Dr/vakcLNqNesTS5XA7ijSfH8ruaWtldxksltMrYIyI5Rz5isI+HXS5xayjPP5KWs0DXDLAqldcpz/dJ/VqTNe2zQpD8oHVsmTs01Nz2Pymeo69KjnhNx9Dk+ylrrZ5mSwjtIrTDOCZZXRkWMHdtTOAAeYyTyHuqZOqoqKu7OUe1jTDs05GobmJShI3xntMH3V65iDGXVKNRJwIkCjPQDtdhVtYZnVLCFGuiMsSrrEuAc7FlJKgn2jjJI2rXDw95RKgsZj2H5bEwyunO26bnY7DPKszXmaoSfBkvGoFt0hKMVJy2qJCH3OdhJkNuO8Dnaq2+kilYJEWESDCAgAnnucEhjy32PKpvBJwe29XsZJgE7/wApr0rv4R7Z8OuPKt/AxYLIRLHrUxhgRIZVBbfSRpUhhyzvW2kzKdEWx4jN2Uji6nLowVFyxUjbm3IdevTzrtPQy1u54pHnmdFY4XOGYjHtAsNhvjbnVZw/0sht7Y2yW5wNRGWUgqWyS2R7QzyweQ3rXZ8YuF78cVxGkz/JsykiQtgAam2z5+HXArlK2qqjV+pJ9KeEXIihhn7LsFY6GQntGKghdQOy5BJ2zV5acSktooULxdmsYA58hgDJz0HXrvXI8YhurR1lfDl3Ohu0Zgm2SulhgEkasgdDXacOtYbuANHhR1OncNsWB8aySSistmp78JCseLiUCe41K6O+nYhWjOQhRTuehzv/AAx0AgPawXalTmN0OVOoo5Rlwem653HWovqatJFFcAO2T2ZVXCMAud+YB2OxNecU4LI9xEsJeMIjEuHPZqCRhRHq9o48ANq4SceDt01LmjjvT/0claOTiEgVH1KJEzyXIjXT4/m88E7nA5V89r7/AOkVqJoHguHUaozhtOxYDmFJ5g4OBXwFlI2IweoOxHwr0/DTyjRz+IhjKzylKV6TzilKUApSlAKUpQGUblSGBwQQQfAjcVecY9Lrm5YPL2RKrpHyMZwP8YY7++qGlY4pu2apNKiwHGJOqxEdR2MQBHhlVB+og1k9isoL2+dhl4ju6DqVP+8T946jrVbWUchUhlJDA5BBwQfEEcqV2FmNK6z0Vt3v5mjJtkYIXLvChLEEDkMZO+SajPFICRjh5wSMh7XBx13ao+Yrov5bqyn4THE00SzsUiLASMOar1xzq24xYWCzuILqTswRj5EuOQzh9a5Gc74+uvdEnzeH/t2v36aJPm8P/btfv1Ldu7KWlVEI2lpn/apP8v8A9Wsnt7Zjk3UhP/hvD/zal6JPm8P/AG7X79epDMxwsdizHkqtalmPgAGyT5Uv19v2H+iB6ra/SpP8v/1al/iKIRrMZpVjY4V2tiFYjwJkweR+o1HUxzHs5FSCYHCsF0IT8yVfzT+tj3+It5eKSvCbC9bs4Y90cKcqyjIXbZxhuW3keVY3LVP2/Y1OO7RX3vAo4hG0s0yLINSFrYgMPEfK+Y+uo7Wdqp/2pz12t8j/AN2ru4vp5JbOO/uCLYbLLHsGXHPUBudlBJGRvsKgekMtqkhW1uZnQE7nceWCSuRz391IuXDe/v0NljWS4PI2tDHKhlLM5BD+rbpp8Plf9b86gXfCzGNQxLG+eylT2SRuQQd1cdVO/v51J4faST5CLNOANTDswcAdQdWx/j51J9GL6JDNEUeUS6QsenOvGe6VB9rl3unlVbXDsjnyJnBL0LCjWjpbzIMXEjjvFeZKkg6l/VHezipvAOPM7zxQ91ZFOuSRwhctnMjsdx1wq77+O9Rp7BANMdnzwGD3KjB68nNavxfgaDYJpJyGFyuo7Y2JbOnyrm8X9ouOS8/csuCmezSUW0Q0MuGlaWDMhGQG9sqgBJwvnuSah+inoe0pYPJCNUTqw7krpuACuh9m66unLrtKte1aIwGyAjC42uFO2c7nO1auC8LJl7JLNUEhC9obkEqBk5GnLDIzsOdS3Sf3/wBK519+xI9QRSzXpQPG/ZxMhQl1XkQoJxnvbtjG1SePcbuY47Ze9FASCGTvMqDA3bfOxB3/AOVQL2yCPOkkaA2+Fx6w2XDYwUGjfbHPcVlJauLdZTbu0Www9wzBUJ56MZ0ctgRkeVbzTeyNxtJ0dh6MRyXJeaSRwiErGunQHBAOth18uQ51Iu+Jx2qhU1TO74EauGclueNRwqj4AVC9HU9cYtOo0xrpXGwJONWRnfbT5VH4Tw+0lmu4oRhoZB8ouNQ1DI0N0AIYY8q4teJ2dP8ABNImH0qjjlYTns/YCrjLKTzLEEgjJG46DzqW11MgkuYXEyZ3iJyeYzoYcsDfTv1rM3MdqY1lAOsEa2052x7WfnEipHAbRBEAjo4yxBXdd2JwPdnFRLGuC4KXlyT3kD4YgMvMdR5Gvj34TYI/WBNHykB1EezlcAAHlnFfV7JiJXt9AEaBWUgnB16iVPuO/hy8K5L8McEYt4mGA/ajYdRpbJI8tt/Ot6EsZpdzerByg5X9T5JSlK+keAUpSgFKUoBSlKAUpSgOm9ILnhjmL1aKZAEAfBAyfPXnJHiOdVObXwuPrj/lVfWcEpRlYYJVgwzuNjncdRUKGKpMtzydsnstqNitwD5mMc/8NEW2JAC3BJ2ABjJPuAFTfSP0pa8lEskMQIULjDHYEnnnPMn3VVvbBgXiyQN2Q+0nn+svn9dZFOt8iVXrgsfxWn0e9/YH3KfixPo97+wPu1pj4xrAWcucDCyI2JB4asnEg9+D51lHc24IzLdkdRhBn49ptWeIaNx4SmcCC9OcY7o6+9KkcY9FWhcRd5JiupI5GQiUcsI6bawQe6efQ1X+swfp7v8AZT+rW+944Gbtdcs8wAVHnC4jA6qoZstnkTsOeCaxqd6KWNepre7WfuXeUlXZZipLbbaJ1Ayw6agNQ65FXNzxTXZQ2UlxbdmDqDgT6yqs2B+Twu+Rnwrn1gVVMk7EudwhPebPVjzAP1n99Rhdx7/Ip+0/3q19NMxTaLaP5IlYuIIq7bA3GP3R4qRFfyjJ/GEZB5Za42/9KqFbmPrEn7T/AHq32jRPnMaDH6z/AHq1xJs6XhvH7mBWUX8GHHtMszsB4qDHvWoTR28sMNvKixvpM0570jAnDZ37q430g+8mqu7vrX5IquohSH1FsA7cu9uOf7q03kAWNZuwQRuSF7z528g23Wp+WuS83wTvSDhlp6y4ivA4ODnRq3PMakwp+FTTaW8tu/b3gD28f9nUR6NZxyOrJc7KMLjHOtXBk9cQW1vaR9oDq1FiAAu5OfazuBzr2zNvHK63q9nJGrYC5caxtjYsCfKsa1V7Rt7yrRp9HeIPBHI8keY2O+oHDHGCFAwc4x5bVp4P2rFVgti0WsHJznu75aTIC4xz2AxUqOQywCUlCRIAUOzuMgac57uQfAjAFXM/F4xbSQvb9jGY20KkoPaYPeH5Pu7nqMb7VsvRGR9SJHCzSGSN7RgSVzqmY5LdG097fG/Xxq4El1FE1tKLV8xsqpiYnQcqCQinYYqig4fC8R7BJ2jG7EToDkDJABizkbcsVP4V6TiJnkeCdgUVTJrSQhY842CJgZY5JzvXOSbRVpO0SeDQqXCPLC8JAWRdbqdRICHBA1b5GD4ipvBbOO0uHOpBEMouhZMlnIKo2AQx5jGSc4qDxmG0Ezyp2kzSLkAFRGNR72+g6TgA7nfOKsfQy4tTatBoKrrZ9MpDaiG2YHAAwQNsAjGfOolbVo2NLkuLK0WZBdStGez7TRhSdODgklt9W3LFWfCYFQSOcASEMuAQMaRv7ycnO3Twqi4ZZlZGeAZgIKnvjTqBGSgHQEEHJ58uVWvGIZJofb0RrkyAZy6Ad4beVcZ3xejtCSu0t+5cWlkiZIGS2CzEklsDAJJ8q5D8K8ymxPcHedMMRuMHO3UHp7ia6KyLoyoCWRht1C4GdyTkg7YqB6Qej63Nu8dzINZJaNgMBG3C4XmRvg+O9c4VGabPRKWfTaiqPglK3Xtq0UjxuMMpwenx36HnWmvrnyWhSlKAUpSgFKUoBSlKAkcOsnnlSGMZd2CqCcDJ8T0FWfEfRO8hkaNoHYjHejVnQ5GdmAqmikKkMpIIOQQSCCORBHI1nc3LyMXkdnZubMSWPvJqXleuC1jW+Sb/ANn7v6NP9k/8qyj4HeKQy284I5ERvn+FVdKeIeEuzw6++jSf5cfcp+Lr76NJ/lx9ytXovwX1y4WDtBHqBOojPsjOAMjJ8s+Ne3fBGjkdRPbnQxXPaqM4OM4J291TlutfoVjqzZ+Lr76NJ/lh9ys2sb7bFrICOot9/f7FQfxS36WD7ZP50/FR/TQfbJ/Olv0M0T4hFauDMe0uCe9ydLfxLZ2kmHzfZU88napb316Pauo487hZDGr4PIsuk6SRvg1WxtHbLmNlkuNsMO8kef0fz3/W5Dpk71i9qkOWucvK2/ZaiGGd9Uzcweun2vHFTjfJubXGi3h4rdKysbu2YDmpZMH34XNeT8Quc92+gx5mP7lVkzQqiO1oRryVy8wDAdVJ2YcuXjUb12D6KPtZP50wXb2Gcu501tNeSqViuIWYY1EFDjz9jrWsT3ZYE3MLQ7gs6xNFkDdHwuxI6HGx2qv4bxuO3Y6IVXWu+JHYeXPrzqdwbhLzzYtMRmRdUkNxq0Onzht8ohP+JSc+dTJJK2jYuTdIi25MnytgzRSKpLQqT2i+JiYbumOntDqCN69j9ccES2fbMBjXNBIX25AsMa9s7nJ869m4Wsdw0cHekVm1Ln8iY8az2jYAjBz3zjzqTxDhkkaiaS+GHwC2mYjltjC7DzxTRuw7kRIycOxcBt/7PLpABOCDn/hpxSO7ASR7KJ+1XORC7MMdGAYlefWtnAr6G2dJmuRJkMBqW5AJ6lcoeXLl1rTOu+r1tUEzMyDTcgAE5wvc3AyPDpWef9m77+xZW08/yUFtbBXZT2imBxHrIG2okBQd989B1rfJwu49ZVWs7MLnUUGQF5ZGdxnkc6cHNV1xcPCbXTem4K6dCR6ldcnJU/nMTyywzvyq69c0XS3VxJJGrSACAOrPGGGcy57wXbOBucjoKh3zRWqq92BxIo9xFJbpGp2JHIDY7ke149K6f8S2iRgqkaL7SvgEZznO/PPOqX0r47ZSgOCszt8miqxB356xzAHmP41itl8pHA8WUhRZIiGfqQdxnfBB5k1DWST4M1FtXaLG0mKwEOQUbOlY0PI5J2GTv8AKmej9w7R5uGj7NkzjcYzzDNnG2/xrfwiERqSQqu7MzYJPXAyTy93SolpKrSSMgXsmYBm1Ed/2cBCMHJHMdTUOmmio3Fpm0T9m8bQqrw6hGCp/Jg6UAXfvLq69MVb3duWZNWMA5HMb+B8fdVXc24gRRHG7BpBtzVQzbk+AG5q1ukQFC5Oxyu+2R1P/ADrlL0PRDaeRx/4RvRAS2/bxgdrECzH568yD7umem1fHa+j/AIUfSe4ErWi/Jx6VLEZ1SBhuM59nmPhXzivf8MpKHiPJ8U4ufhFKUr0HnFKUoBSlKAUpSgFWvow1qLhfXQxhw2dOr2sd3OnfHPl5VVUrJK1RsZYuy1vUszI5jknCajoBiQ4XO25lBO3iM1p7O1/Sz/Yp/VqBSsUaDZOMVr+ln+xT+rS84aUXtI2EsXIOo9k+DrzRvI7HoTUGt9lePE2qNsHGD1DDqGB2YeRpT8hZe8Q4lYNb2yJauJUXErBwmo433w2vJ33Ax+6qrtrb9BJ9uP6VetxFDztYPh2w/hJWPr8f0WH9qf8AqVMY0v5KlLJ2bI+JJHkwRFJDydnEjIP1O6oU/rbnwxVeBk7nmdyfPqav7j0jjax9TFpGja9faKScb521ZbJ9n2uVVNvw2R8HGlcai7AqgXlqLEbj3ZJ5Deti+bVCS4p2WnEfSa5uI4LY6GEXdTSgLPgaQd85OB0Ary3FyM67eQ7AD+z9B09ioUl0EVlgzg7PKRh38h8xPIbnqelRZg6Yyx3UMMNnY+40jGtJByb2y1vuGXcZA7MtlQ2UhyBnoTo5itT3UsmiTWySINKENpHhhSCCp57cj+6qwTsNwzfWauJZI7hF7Zwkp5SfmMf70Dkf7wD3jrW/UxMxteITxwvEYkZC2uQOhLEj55BBIB8eRrefSd5AsckcBj22KNjYbfnVla3F7ArxdgzgjSSY2bbfk6bMNz1I3qALOTB/sb+Xcm2/fU4xKykSzxXvojW0LRqTpGmTYHc6cvgVOuuLRSRKi2yPOhwFKyaFXOcjv7DGmtcckrKivalQpO4ilzvzPifdVhxvhEkGq5tYS8IUK7tqBBJ+aWBI9ncDG/PY1LUFyanJ8GF1f28fZvaJEsxbdtDMUwDkYckK3TxxmrLhFv61Hcz3QBwQwkGpBpUbqMAjT3TkjJ35cqobyKL1MS5UuzBiuWwXJwQAGyCN/qqyf0oDWHqixL7ITOTpwN+XMN8fOplHXhCe9nUcIgEqqpkhEK6ioSPmffMpGADzAyTzPPMnhseoSSdvDoQ4yVAxjkfZHTHUiudPDXig+SkjCtEJCra1LEgDSmTzx7unjW9nLWiCO21vrRC2MIGZgCS4Ocb/AA61ycfNMtSrlHbR2w7pbmCG2JxkdOmR76rr5vWAdEI0hykuSMqqk5Pd3ydiPI5rCe5uYRGhVWBwvaDJCZwoyhOSckb8vHFaeFNJA+jDlZXIlYjID4G+3s5HmeVcqf5i1JflfB0HDWyvZ47gUAHUSxznoR4Y3ya9htWDEk61GcD5oxt7yTmtVzbssaFBgIQRjmFz3sY3O2duteDiB7F50QsArOBuGOkZ0/8AFkGuL86PVBrSkj5F+EbjYubgKInj7HUpDjDknGdugwAR765OrH0g4u13O9w6hS+NhyAAAG/XbrVdX1enHGKR83qO5NilKVZApSlAKUpQClKUApSlAKUpQClKUApSlAKu+O+k813FBDIECwjC6QQWIAUFt8cvDzqkpWOKbTfkUpNJpeYzSlK0k9BrwUrYkxCsu2DQEziHFDIV09zAAwvdGwxyBqVdcd7SOCPSV7PGpgScgbHbnvzPnVKKzmcE5A0+VZiirOy4/aW0csZgvRIhTvFi5AYnbeNSvwO4qAbyVRJbreRtEWyYwZmUnbcERnbbOAcVz8kvdVQcjGTtjBydgc7jkc7c6lwxxrCsqy5mLlTFpPs49rV78VChSp7Kcrba0S+GcORp11So+CWZE7QOcDPdDINW+NhvjOKkXU7FLlLZCbUsC8mhjpOBkZ8Mgc+Waq7RHa4UaNbE5Cg45DbB8ufwrp7bibzx3FsW7A95pTpVtQ5MDkjvcssDuOe+5StEosOF3dzeGLt+ziUYMRKN8ueZwS2MgDOP/wBHR8PVwZrZnXTjUNI0sO0JJxvgAb7YPPnXP8PtmlsoXFyyCEgxho1BGnKAMNW+QSBvyara+mSbsLYhEbeQyHdj2ZA8tzq5k8s7Vwkr0XEnXTIhkWWRnVtIDEkgYA3/AFTnJz/KpfC7m0W4aOOUbovd7TUjNkljgnd8ad+eDXy/0t405KwKwIQEMy5y2GIyc7cgOXSuWNH8PkuS49bCXB+jXv4GYxl1IBwRqGAwAOD54Kn41o4jx+C1g1uwACkooI72NgFr88Yr2s/BrudPxb7Gcz6mZsAZJOByGTnA8qwpSvYeNilKUApSlAKUpQClKUApSlAKUpQClKUApSlAKUpQClKUApSlAKUpQClKUBtjnZWDqzBweedx7j9detJrB1Y1ZLFie8f5mtNKAszxTUo1glwcAjGnTjfI5ls43qfLx5GlLxoYgVReesnT+cNXI1ztKzFG2SOIyl5HYnJJznlnzx0NR6UrTBSlKAUpSgFKUoBSlKAUpSgFKUoBSlKAUpSgFKUoBSlKAUpSgFKUoBSlKAUpSgFKUoBSlKAUpSgFKUoBSlKAUpSgFKUoBSlKA//Z;" vertex="1" parent="3rs9vHmOBtsUDxQql4TI-20">
          <mxGeometry x="15.629999999999999" y="75" width="98.74" height="60" as="geometry" />
        </mxCell>
        <mxCell id="3rs9vHmOBtsUDxQql4TI-49" value="" style="endArrow=classic;html=1;rounded=0;exitX=1;exitY=0.5;exitDx=0;exitDy=0;strokeWidth=6;" edge="1" parent="3rs9vHmOBtsUDxQql4TI-14">
          <mxGeometry width="50" height="50" relative="1" as="geometry">
            <mxPoint x="130" y="79.63" as="sourcePoint" />
            <mxPoint x="180" y="80.13" as="targetPoint" />
          </mxGeometry>
        </mxCell>
        <mxCell id="3rs9vHmOBtsUDxQql4TI-28" value="" style="group" vertex="1" connectable="0" parent="3rs9vHmOBtsUDxQql4TI-14">
          <mxGeometry x="180" width="130" height="160" as="geometry" />
        </mxCell>
        <mxCell id="3rs9vHmOBtsUDxQql4TI-29" value="" style="group" vertex="1" connectable="0" parent="3rs9vHmOBtsUDxQql4TI-28">
          <mxGeometry width="130" height="160" as="geometry" />
        </mxCell>
        <mxCell id="3rs9vHmOBtsUDxQql4TI-30" value="&lt;span style=&quot;font-size: 20px;&quot;&gt;Diagnosis and Confidence %&lt;/span&gt;" style="rounded=1;whiteSpace=wrap;html=1;verticalAlign=top;" vertex="1" parent="3rs9vHmOBtsUDxQql4TI-29">
          <mxGeometry width="130" height="160" as="geometry" />
        </mxCell>
        <mxCell id="3rs9vHmOBtsUDxQql4TI-33" value="" style="shape=image;verticalLabelPosition=bottom;labelBackgroundColor=default;verticalAlign=top;aspect=fixed;imageAspect=0;image=data:image/png,iVBORw0KGgoAAAANSUhEUgAAAOEAAADhCAMAAAAJbSJIAAABj1BMVEX///8oqLMjHyD09fb95Mf2+PnCtZstSla9vsDs0qAbYm0vUVechnooq7Yhp7LIvafu7ev/6csAWmYXExcfQU4mRVIAAAD62b7BtJkjFBQjGBjBtqLzw659c2QjGxweGhwVO0kAVGEAXGfcSETk5+itoIomnqnu8PGhlYC+urSZjXrl8vMSDhQAAAvf4uSQnqTaODM1UV0AM0K/x8okUle4q5NWr7cmcXhyaFwihpAcaXTL0tVVaXFAdHxDQ0S43eGj0daQxckjQkZ5ub9kucImeYIlHCMjDQskAAC92NozLivaxqzt2Lx4iI4nk52Ssrc9cHmuwsbzwsHnhYLhZWLso6H43NxcgoiasLNneIBIX2nHyMmnur2YxMlKpa14wslqqa4lODvO5ug/OzZYUEhkW1GMu796naSTpZlzn6HK0sOKwLvlfXvrm5n0y8neUE3mh3nia2na2MWryb7ZLSipnJYAJzlOh49+jYPf3NP48OG9uZRdgXn42aGPu6q3xqqgpIvYyp1rbWxVVld7fHzna2SaAAAZXUlEQVR4nO2diVcaWb7HxbKAVFKlIKTVNApYUgSwiBJRKR0xYjsqaOxOIu4JWZxMOp3X5nUbO53OJPP+8Hdv7cu9tYGaPofvOTONSrQ+/H73t9ylqqenq6666qqrrrrqqquuuuqqq6666sqHCILjODYPxYJXBHHdF9RBsfz6UvXo1Ur5GIim6QD4T3nl6XJ1aanF/+1BhaOTWvk4EGBkBeT/yV8Fjmsny8LAdV+lP3H59ZVjlQQr6Q1Pd/Iced1X7EnsevVpwB7NzHm8vMRf92W7lrBcDrin00GeHP0NHJZrvXLwS3vK8nr+uhFsxS+VMXS0TvaQ5eX168bAij05RvJBqq35Weo+FDW7mrHFBL+i9k0ykq0y2jvpzNbsg+G1teERUcPDw2vDzypbmYAt5M635qzk+graPenM7P3e4dFeo0aHAeR8xo7xuMpeN5RefC2A5gvMPhgd6UUJfPvBqq0dy9VvJkW2cPZj5kct5tNDrv0wa2vHwPo3wcgdoe0HHPT+qA2fqDUHO658AzFnHZMfQPh8hvZPox17H9iYEXx2y9dcm7NP0fEzkKF+WHMyoKSR3lU8IWS8VletHqPtt0U9G3aFJzFSjF0VwLy6tswxgIsw889G3NlP1vB9O08NgFLuegDXcRnwvkv/1CE+27JFZFauYTQSR7gI+sCDgyoaeWZrxQBTu/LWilvBpggfgMCKtiEVBpzW1QLyuBbClwVlRDtC4KlXmjfWaVwH6M+CIuJ9WyMCxhXuygBxVUyAnvUNCOqb1W8FkcQMQQC46p8PlDf2ATVwZYORwAIGMg9c1Gl4jdx3mv24GsQa9jJoqi1AgDjvYESQ/C8dkbABzPyzPcDe0R+cCANM5pLrG+LExpHut2lCEGwcjQiyxuVaET8GQbn9zGuxZjXiAydAgHh8iYj4KApFtZEpVDkb8VLDzbIdYKZ9E4JYU3E2IkC8rEkqTK0tiZ63N+FYYcwF4ahD7SYj1i4n9Qu22Yp+YGvCwbns80EXiMNOWV9CvJRuqoWtRSVCh1E4GNxMuEAcnnVDGGCWOw/Ile0B59dwFz0muufY80jfzO2CE+HoTVeEAabzadEe0K6eebEhIk4mIpH6XK/TaBx1RxgIdBqx6lQy4obh2PPN4AY03dhGsA+YccPBjGsuV+aYcmejjcMgtMkVk7lIZHPu9hhkrUf6wOtJWzOubbkjBNGmk4AsetZQEz3/DGfCSF9fJBJ80TvYO7gBESPBf4zZMLoo3BTEnQ4S2tYyEiEGcCMICAFjfWauUCi8rEPeevb5JJZw2KkP1gjLnZtHXXccG/Qq2kkLuT5Zkfpmrvf2i7r4RT0xiSsAXKYLEXGlU7PhrEMcFQmRoRQOQgAnM4IBmUsovLkXbRMGmGpnAEnbclQmRE7QFOb6NidyiexmRLWk8irSl9ho00shYmf2brRcxG8kYWEuOLcxefv27ef9KqKi+twkUGFwbGywMAj+f8wfYWfiacYn4djLud4XiYmZmYlEom4mnHgJf5Cbe/48kZt7+fLlCwXRfSwV1Ym875jrJULrOHzxMhGEgw/IAthXl3+ymXsRhK5bz8lF65qr0ltRJ/K+izATQMTSscG5xGafxTktigC2oJhC5iTENTftkw7xqG1CF2EmYM2Hg8835Ri6uWk1oJo/NmV7wq9m5H/qyUkBYrt9FOvu7xgnacbGEkr4zG0MWgehBAjqt42cZuXN53Aojj7wSthuH+VYzcjK6Crvwka/7J+RGZDYC3NIZ63PFXrHJnVR9iV00+GKR8LAcXvrbqzbPXi0NpU4OKeOv4jYLN1GGTHSDyu3wZdaqkzArsNdj68Xs9xWZWM3PWokXFU7YJ1b1m/Db0xOIIwYyULCsX+o743kCnDtwlugEeV7XqpUbDRmt+y3Eur0T82G6lVvioSFLIpQNBnoHlV7T0zCpQvvhMwrn3yxZDIZi8dvunQbzU0HX5ptiCTMyYTqN2YA4aiXikZF9BVOm6F4qFGkQkDuEOl5hXDsheZ5YkN/21q0gR8FJ03vBd9wXmBDEvrJiQcA8LDniFmNh0Iurah2+aCXV696bhLOlCJj6ebGoNh86AlHvOYKidBPYROKxxs9PTTwvVAojpuHpgOMbtTQs0q+2FA9r6/+ogByB5IQpPjJwgvtR5DQY1GqInqvToVkKFaEjS8N/fRmBoQbU/1N08zW1vxqRUPUkv7gpi6PZ3P9KD6oO7msLo/ASOO8uoYm9N4KF2Oh+B5MFfRNOBLn52epmwoM3MLMQLgKRVFRnQersWYyqDNaBF+cGn8UyRa8p3tFnuczGjHgnLvHTGYWAgKXjcuWDGQyAI6KUop0sY/OyCkRGTsdBYKrn2QoGdFzwgA2BFxU5X5IEyXCzVJG6T91Wl7GH0SXaU6EiYKbhSeMfBHqdBNKdEtN6WgKmlL3V5Tlp7ENX4RzvlKFbEQPxSlZauyDVGGig7qvwkXT1MPd3e317SgV1TtWRh6Jt30AgrDrYQ7KQuhhOkMAhYyMpsFJkuhSlfPT5g4Po1crRVH6+K7sp5mc8W7EyOZznydtREIPKVGIGQxnIEynqPNtgdeOmUUNoUbtoQoJH4Qzfgo2TR5WvptIOpg14rvmKh7EHUN0oFeHTXWbQd9Bff8dGvFffgOpKJdTpwRf2jl9aGG7KY/I+ILZFV5HqYrxwqSBuBFEG/G777/HAdadlkYcCJ86uikhNE93H1LpdNRkOTkjxpLToab5H+2kqIohANLS3kRtMt9iRZyX/rstwIBd0ic5Vmg2KiD2p9NiLDHRxWOx0P7CXrGE+JD4tDHUgNJtRMoXmzgSnJyW75yEqU0JXtg53a2ko2ldotP7ZSwZWmg0wwLGBdhFQGj4Q3KsQbb1dnrfrgmZp6gLLO0uVtLptD6Jp9I3NbeMLxT1kRPxCZ1HqVXjtUn7hrwm/TNXs7L2Ql3gjr5CST9c3D3dyfNJ4JZxnFuatW0ONcrUsMfa9E37gMhOX3goJ/H0IkjigjhWucZCo4h1S9RnZCScV9tgE+J3epkA2w4zAcxAHNiF1ls83eFZ7QMgdK9/fPvzz2+f2BCug1rVGEyV5e5BcziFmUKV6WfthhmREDmXcZqm0vjLfzJ+T9RPeMb8oqmq0ab3C+bSTUM0mbCO37PqhfAEdYHNKJXC5pFf3o0/+unxr+Pj937Ffwq7aUMDpdvqPbZh8VM0YCcGISQsowZiCTQHuDmOgUfj4/8z0PP4HkB8jCU8Bb9B/3d0y2yFOUtAEWsaE2CkM4CBQBnVQXEpKnqKufa3AO3dk54fx989gv/FCFQ1Uf0OmIw2uz88+8ZCiIgynQLErJaCQLOLufZ3YBQCsic/PnnyaPxHHCFrbKDoLYVv9IcKzbwxpwwEYKf4AoEl1AWCQLGIGYj37j1+IpvuZxs3TRnnapSNwiOj8NwkY7GiSZEOAqLbCxBqKgKOUDLcwJNffrUhXNQ3UPSWtHoxopx9ZVbO7AA7UcpohMiVRAH0sJjNU4/uvX3yC4B8fA8MSKyXwlCjVTWZB8MjI8NrvfdXlVOhTPnfeAO+7yQgZlstCyoaS08k6fG9d4/ejfeIwRQfaXp2olrOp7fgfSEq81u6k3YM/cacNWS+szd+7xCCIXyKIuQWqfQpeukGZovx/yV6frlnzhYEy4cPlS/EBkr5I8h7ezDMG4SrnmGO2LZBeIwqNUlQ1SxialCQ8cfvvX378/i9n7VvskK42NiPTy8oHQcHqxqnvx1YeW+APHv/phOFmknHyJh5CJwMt4YKqjaxbvtJ3lvFlop7C1PxWDweiu8r6ZUAn9Gs4xQLY4iqZ7VO208UjSQsUVSqhCEUK++fHj/pIVm+VFyITcMVU7k3nlL/UTNtai/QiO/1NuxohNH+BpIQNFDYqkYUJ5SAW4bUWVSl9VcJYQPlYl+vgdDtDo9OEHKggTrH0kG33IcdsWFGKrZXPNBaLNhA2S37SXfzovVJA5SiujuaXTIhbKCilm+SHC8UF+J6t5RnpBqW1p8zN1AmPLpcO1l+80ofaSJ3n75ZrlaXT2o12vs9s7DKoAlhA2UMNUS42ViwuOXUQqNZQrb+5gZKj1dbrrbyBMmHf5vRE87cuhvmCZIkudZStdYpS2JsCBsotarhIAGbNLtlcqFYYjncjgfoBUg+WqQjCJINh2/d0q1117O3fgsDREn5VpXuCCOGkEiBnC96ZnEv9LtY3yRVuNAUnJEyZROCNX7D3EDJfLWlHlJC4MKQ8Ja22n0HfHUXIMo/B8asdmQeA9NDVJQGajoeihVhIl+IQ7eM7yMmSmHC39vfM0wwmhoo6Y/R1Tyh6CAcvntLQ4xswi+AEcMcoSK2OmBFzDiEw0hqoPYB2B4kavweA26pn52SSA6VhL9v7KbNK1DQgC1SvXo+LBPeElczInXx9QT47oEKSPYstY+IsyGoaipid1yMAbeE185Z3JIPF/dBllAi65SxRjg3rUAx9FKPakDRR2XCWzDc1OWX8NuChkgutQuIJQQNVFoMNaWpvWLYHE6kOjRmjKzTh4b3GKeFGeYkT2qApCAS5hTEzayOMMxqhKTrXYJeCdmK3ECRZrfkRLcM6XOiuAS11zR6aUnXQAHAJY7QiRVJ7spcExPyi1tDd+H3D0iNkGjXT9F1qVjVRF8b2UDCF+vQGCLhC9ZlDNBkKg0UEzAYUAozkHBG4srmghJiViKU/VQkBEOxPRMeY1oIRAMV3o8b3TIpLkGhE76+gQIjkDCKD0uEQ5IJs9mgxDohE0p+SkpGbM9P0f0h1GGaSktuB+tQaM2w0S3jMLLaLEGRp1GpgQIh1ATIHSiEoumC2YmgZMSZ4J2wZkSJkHQ8A2hPiN2tABsoMdSEQR06DcOksK+vQ82j0zxcxcoPNFAgB5JGD5UyhUQ4IWLlAGFQHIZDMqGY92VClwcDcITY4888aKBewxfCVAhu2AMQC2i3JNkSCD6hQ/NvEBsopqzPEbLCKuFQ7hagEwmBn04EVcKwZkMy3xYhdtc+ARqoRfiCBcVMbA++KlrdkuQPG1LCjzXMv0GADVQtb+FTTQgIgzMQTiQMTmSDOkKhQ0a02Y4BQk1KfLEXm1ooWkzNgYTfMCR8yzsWYZNpAVRHoUgoCozDiRnxlUYIg41qxHa6f+SctyjYQIkbbkphwRRwpTrUlPB/t3wIoPKjEISqCcNhlTCXS5gJBY2QdHXKCiP8PtqDlK6B0gTdch+6pRZYYWSdajQtYRVUNSnOxoQaYTYhe6qOMMyqgO2EU7ujJdYVqFJjIYnq8JsCMl6tp0A4NsVR3SjUCCeyiazFhuGwRuh/JDI1my37FW0FihPEomUhaUz4YHwelkw3wSf4klKB58FntG1xU+iAvGAkzA1lJwyEB7xwADKGKt/hFL0GLAs2UOIAbIJoKW7tkjeYynVoUWDNkVVoNhb2Q+q8MKjeT625UOAI/sBEGJSl2lAANeKBNhBt7kPlQGh3JkFroJJgrEF3PkiqdagpJXKscLg3JXlwfF9ZtwIN1CJrzRaao8qEMwkLIQg0pF5uDuUiCTFraKJ4tYFKhkLJA/gd4JZNs1uSfKlZ3JtKah6sNoog1DwUzANRaZ10hEMIQn22gG7q04i2J2dAA5XeFlFBPp+GVQ1pdsse4JYgshrnqGLTyrrVOlylsxKyKsUdGRFFqKvb/CcMhsbzkSS3G42eQ2/kGtatUMAtww1gOGMrFZ/a3yse8srHAD+jJsKGrgiNNvSZ9W32QZ/Vz87ufPjw4QJ+YXZLAdShU7FkXBdZY8kkgAuXDNmHOwcJx5oRtXGoEs4gxiFhRPTVROHPzVzckPTlRt34A2TCn05ONQ5BZLX4AWigEKGGIAQToZTuDYSEmdBXrME1+ADkhqo/dN8WpqatbtkwTV+AyKoYfRvUbbzVTdW6Bkt4wFkIe3zUNegFYCji4guSkFvQ6EDC34MJ3xh7CKHUbOwroQY0UNESglCaatOV3jkTIU9YCX3EGmxjQZ4peB8//GH4yV5ccstpyS2NdJxQhAk/FpOarR5plW4bRSgPxbvmlC8T6ucTdcWpZ0Js2U1sKoSffjNCFJPQLYuCeY6KFZp7IV3JqvwisclEEMpD8a455cvzNASK0PuEDVPG3gPkQvXRj8ZPgW+a3ZIUSoeNhSlTJ6UEnddwmyOSUByKCmHQSKhbutDLs5vanMrnVDf9cxv7JkhXtCZ80BQvNBRC2ECJiW3ZPBslTeubixqR8EB7k9FNvaZEm5LtD82GyMVusQ5thAydlBhZ4aKUPrLKDVSrxpxY2ijBYMMhjZAl0YTuT8krwhtHI/x0bm5sQR16aKxDoemSsX24Tdo8+8qJq3RL9F+f31gyP6snzObEjAEJBd2nYJTHyWG784cDaqj58tCY7ARLwgd1aHK/YV2UkgQS4nmVPv7y6UZ9wGxFYESlWsslJsR4CglZLCHpkdD2DKk8EL98oIwrSsK00S3FOtTm95ynqUqGCXyGv6z+h9FNgRHvqITZrEx4oP8g2nFT+3PAxCfFS/80zoOyU6pbwoQvsA6nieEK1FaACfx1A8F4oBECL4W16ZC2zI2yoafKzeEs99mmWNV8+vTBGGq4hVhMrEPDiDoUISGVSs3D/SNlqUqqc7ApIkg51twZkkZiNivHUqVeQyPmPVRubg4fEqzwrz+lBkoVWVwA1Yy7Y+BivPqy+fHj589//fWXXAd+AuNRzeEH/f3BISBxNlgiFAgbQjc3GFMJ3d1ToQiczBgfsZsvrKrfQOoP3RUTAxcXFwBzIidnC4OTWgmXPNy2zd2FwtLZ971sXBDKmAP8wZlozKEwZ0vovg92ewZYqGD30rpQpF7v+/LxoxGwbr5qVdzFWb9pWsf8Fg/R1OXtBvhFhy18jtpJ/cfBhGaL4rMF6T7pu79R1G6amm2LkK+YnNQBUCNFEhJubej6jDNcgWrrjkvk4oxLJ0Xa0yyXU8Me7vV1CJoDu0lVZ51SH/Qj0clJneSuhWI8HMRPUVHL6q4nbaf+/KIjHHCGsJWrssbT/YWi8hY+fyI5fjv14UYHCd1MfjM1LwNrkaJ2/Q1Ebn2nebqYjlIP//PlS8cIXbmpp7sLwX013p86wO5s7y4+TEflW9Z86JwNXayWMjVP17oD6jYPt1eGO6Vfn6dTKf1R99THDhKSjm7q8R60PEWlXYYarrXTfL1IpbR7DUm341ld/fxJJWw3ljqXNV7vI8zCgwnOAzG/vr0Lby9hpItWVuczGYah3/z1/vNncTR6yod+CD0/IQGefjm3yS7QLbfPKaNbQsvNAriActpJPmTQQiXxzhL6uJ93M21uoDR6fufw9LxicUsAB5/sa+l0mBa6FPMm+3Ho4y5toIFKIRooErolqMutbrmVQdHpCNtjtI+l6Bth2Etce9CjcSxwywpwy6jVcgHbB2wzLZuuwa1s8yFT9pG72UUqrZwQIiW3jJrGHCW6JeN4y0/GMvE9cDHAddCEDO3rgUHw9AukE7ZP4V1PdJZLw5QuuaXN83ttCImBfqizi4sLd6A99k2+zwcjwAbq8HzWGC3TAHt397S0XnZ48LtetGWj4kD/kDh7MZObGRoKAlTWFjBftd317ff+yPC4pWHMgS8Wd5s70hS+hylMBkUoL69Js6VDQ2fmHUZEHgxZ8TrIlsMZGt9PReBTBreMLp6WWN0Uvu3znrwRAkYzIZGna7XayclydbnmcA6qjTuxpxW3hDfjsSYO14ggGfsgzLg8lcjQ/h+J8NDglhYRr9zODlk3DCuEQwphv2VN3PUzdNq4g3fT6JYWkS4nMd0QWmzokpDp+HOQjIjuTvAyy+ard2FDd5tMmMAlP/vY5imkbRO6cZBLtiCUK0dlqj4InRveKwEEiC7CDbNkGWQKYVAlNL/DxXITQ1/J47lxzxzXiXZDaHmL48zTFTxJVtaRY8KylKVubOi0UsGUL+vZlVbhn8stX4r1/IxGOIEhJBzKQtut6h1XC/dkbulaatatpi4I8/aF/VGnntDlTrYT0kzNcvUIL7V8Cnb9EnMJj3R0kk17Y90WhbKhlRD/qTG1qxuCmtaxHzlTdSYM9g9Y3oOdW2OOrui58SaxuBvpINKhK0JMuriSNI/RDtqMjDXQaITZicRcDk2ITBcMs3I9BpSUR5apDGKzsEaYy/XPIQmRO0yYcvUa+XrgZKo1bzA0YiutRpidm0ETEtbZtWs2oCRi2cyICqV6L51JDKEJzemCCdSupA51VMt06zVEZ2GwITbSEMZ0wRwvXcbDqf2IbB3rGZmWvQ2xhPrTMgzDHHXuSaodUOtE81XrRJtbG6rpgmHKl/Dk7Ta1rvgqYpLGLaFcezPMcfU6ahgnkfmn4jwgc2JKh3AO20oYvLAS5jOie5bXvyn/1Iuo1sAVmgINKXzdE0hXhCTEW25v39Jli2gdHZuqUrL49WvRStiPIOwpryx9i+5pUp4VbAmV02sXlojL8/lvJT04ieQHuAF1NHLNMEcKCVlzL+UXhq36HMfx11+9eBLBEhzPcuIeUrhr4WCjMGhQ4a60yZ2E7yMHOvN05qsWPK4ucJxMCJ/crGpw8PbdHmg6QeDA+677StsUy/M8efD1v0D/EAVefP36f2Hhgv+7oxlFcixkBcLfg7Grrrrqqquuuuqqq6666qqrrrrqqquuuvrm9P/yZYaJllkUtgAAAABJRU5ErkJggg==;" vertex="1" parent="3rs9vHmOBtsUDxQql4TI-29">
          <mxGeometry x="21.870000000000005" y="62.379999999999995" width="86.25" height="86.25" as="geometry" />
        </mxCell>
        <mxCell id="3rs9vHmOBtsUDxQql4TI-8" value="" style="group" vertex="1" connectable="0" parent="1">
          <mxGeometry x="10" y="200" width="288" height="253" as="geometry" />
        </mxCell>
        <mxCell id="3rs9vHmOBtsUDxQql4TI-9" value="" style="group" vertex="1" connectable="0" parent="3rs9vHmOBtsUDxQql4TI-8">
          <mxGeometry width="130" height="160" as="geometry" />
        </mxCell>
        <mxCell id="3rs9vHmOBtsUDxQql4TI-10" value="&lt;font style=&quot;font-size: 20px;&quot;&gt;Biopsy Slide&lt;/font&gt;" style="rounded=1;whiteSpace=wrap;html=1;verticalAlign=top;" vertex="1" parent="3rs9vHmOBtsUDxQql4TI-9">
          <mxGeometry width="130" height="160" as="geometry" />
        </mxCell>
        <mxCell id="3rs9vHmOBtsUDxQql4TI-12" value="" style="endArrow=classic;html=1;rounded=0;exitX=1;exitY=0.5;exitDx=0;exitDy=0;strokeWidth=6;" edge="1" parent="3rs9vHmOBtsUDxQql4TI-8">
          <mxGeometry width="50" height="50" relative="1" as="geometry">
            <mxPoint x="130" y="79.5" as="sourcePoint" />
            <mxPoint x="180" y="80" as="targetPoint" />
          </mxGeometry>
        </mxCell>
        <mxCell id="3rs9vHmOBtsUDxQql4TI-13" value="" style="shape=image;verticalLabelPosition=bottom;labelBackgroundColor=default;verticalAlign=top;aspect=fixed;imageAspect=0;image=data:image/jpeg,/9j/4AAQSkZJRgABAQAAAQABAAD/2wCEAAkGBxITEhUTExMWFRUWFxgXGRYXGBUVFxgXFRUXFxgYFxUYHSggGBolHRUXITEhJSkrLi4uFx8zODMsNygtLisBCgoKDg0OGhAQGy0lICUtLS0tLS8tLS0tMi4tLS0tLS0tLS0tLS0tLS0tLS0tLS0tLS0tLS0tLS8tLS0tLS0tLf/AABEIALcBEwMBIgACEQEDEQH/xAAcAAAABwEBAAAAAAAAAAAAAAAAAQIDBQYHBAj/xABFEAACAQIDBQYDBQYEBAYDAAABAgADEQQhMQUGEkFRImFxgZGhEzKxQlJywfAHFCOC0eEzkqKyYsLi8VNzg5Oj0hUWQ//EABkBAAMBAQEAAAAAAAAAAAAAAAABAwIEBf/EACoRAAICAgICAgEEAQUAAAAAAAABAhEDEgQhMUETUWEiMnGBBUKRseHw/9oADAMBAAIRAxEAPwDY4cKHEbBDnNiMdTTJmAPSMLtmj9/2j1ZpRb9EiIc5aWOpNo6nzsfQzpEVCaryHBCgJgIBMJczEHOOpAAkFmI6gHzGR+iwzCq5FT328m/6gsNoCRXNubGJJqU9TqvI/wBDKv8ACqg2NN/8pP0lt3i2hVovRZFLr2w6jS1lN/EWNvPXOOYfeHCMO1VRWGRDG1iCRqRmMvcaXl45Gl4s64SnGKdWQOxdkNUqqzqQi9rMW4iNBbxz8oxtTCmhWct8rMWB/ESbeMvOGrI6h6bBlYXDKbgg9CIztOgGptdb2U2HfaCyvbsysz27M/Wrx3AYKudyxA07Q17wsRhqtxec4pBrL1Nu/My3bT3cBJajkb5ryPf3Hvl3JR6Z0TlGLo6926o+HYtmToeknlEo9NKtHVGBB11HqJObK23xsFbU5Drec+SHtHNkxv8AcieETX1VvFT56e4EO8FUXU+o8RInOEDBEqYomAwjBAYIACCFxTjbatANwmql+l4UNJvwdhhQBgRcG4ggIAMcXQjz9Y3eLpnMd+UAYUEBgiAKCCFAAoTnKHARGBnmLxBYktrc/WcjVCZYtu7CfiL0xcHMr390rtWk6i7Iw7yDadkWmuj08cotdCf3izG1wL3tlkbZ24QBaWDYm3WUhWN1/XpILZezWxFVVF+G93boB39f6yS23s9aNSyrZSot4i9/13xy1fTHPST1ZeaVdWAINwf1bxjYxKE/OvTXofrKVg9rNSDAZ8SkDuNjY+M4KOJPImRWE5lxXb7NNAhyp7tbaYuKbG4JsO6wlrkpRcXTOfJBwdMOuLqba2uPFcx7iGxBAI0MUkZS/AVGXDde+32fa0yTRDY2o1Wr8JM+HtMfspwubXAzZiVOV7AAedc3v2FT+CCtiwsARmxLEnMg24T4Dl4ToobUSniv3are7urWFuEn4FEC5JvYMrXHh3zlrYtmN2OrX97zohFpnoQhODVfz/Ind3ar4XhWsjAFRkcjwi2meZA+ycwNABeXvCYpKtNaiG6sLj8wRyIORHdK+tSliUZKgAa2RFgTbTPkb6GRO520GoVTQqGyvdh0DBS1x3EKwyyuotkRFKN2/ZjLBTTklTRZzu9Q4xU4bEMGyJAuDfQZaiSoErm1d6FWm/w1PGCAOMWWxcLxEg3Az52zy6zn3Tr1a1Q1GccKj5FVVBDfKbjUf0Gcw4yatknjm47S9FpYA5ZQkoKDcAXlc2/szEmstXDuRoGW5A5C+WuXLu9ZrZGLNRSH/wARG4W5Z6g26EEe8VUrTMOFR2TO6OJG4pTME2c5ewN/sm3pn9DMu2pve71fipemF4rDMa3ALDraXvepKhp1BTJuyq4A5hTZx6FZkOJoub3GuWU6ePBNWz1P8fihJOUiX2P+0CulQcZLqTobm95rGzsatamtRNCPMdxmBJSAGeq2zzyBGf66y1bn7zGk4UmykC6k38/GUzYU+4lORxVONxVP/ktf7RajqiMrEWbQZa3zvMl/fm4zdiTc3v4zetsYNMRQZdQy3B9wRMG2nRs7C2hIPiDDjNVRr/HtShr7RpO4W8YANKo9x9kk3seYl9pVAwBBuDPOeDZ0s18rzRdz962VglU3pmwHceszmw+0S5XEu5w/2NJMMf3iVa+kNTOQ8odfW/XOJhj5fA2iYAg4UF4IgEwQ3Gcbq1AoJOgjAr28+837pUpKVur8XEbEkW6W+smMHWp10DqLqb28ja/tKLvHVr4tylKndeHJ7WGdjkTrzF++Ru18BjMFhwKdf+GGUnhNirHKwIzAuSbSygml9noLjRlGKTqRqtKkq6C0it48L8SkToU7Q8r/AJSE3M3rNe1Gsf4n2W047ajpxfWW/EL2Gyvkcjz8ZinGXZyzhPFkqRm2DrIGLOvFwkcIuQL6kn2yi9rYCpSQVUXsOoYDXguL2J6TmB7RBFjfMc79JplPDg01VgDZQCPAWnTOejTOzLl+NplE3QqoGWrVcKRfsgE3JFr35DOaHSqBgCDcHnK/iN0qJJK3XwP5aTt2Pst6Jt8QsttCBe/iLfSRyOMu0zmzShP9SZLrCX5mHUBvPQ/8sMQnyKnv4fJv72kTmKBvph1o4mlWzBZl4teEhGzHiePp9kTldMpftq7OSuvBUFxr/wBuhkNU2EyfLaoBoHFzbpxKR7gmdEMiSo7YZ1qk/KKwCVzvmI5tKuXx2FbhsrfAt0N2PF/vt5d86qGxaxYvUojhBypiq+g8Uz9RJHZ+Dq4jErWqUvg06IsiEqSxAyN1yAF/YZZZ7lJeSjnFd/hjm/VJUwVQqAAvBoBkodb26Zekjv2akkVLjIAZ8u0SSB6e/fLbtbALXovSbR1KnzlG2dXxGALUivZ1DcJZDbQsFzXLmPflKLuDj7JYv14nBeTRDIRmQY9BxAE0myBF2a6kBu4Lcjx8JHYTbGIxlQrR/h0gBxPYkjXIMQLsT6ADraT+A2WlIlhdnbV2JLG3edPAZTFa+SOvx3t5rwd0NYQhzBEZxYzRuh4T4Nlb1IPlM/352P8ADY1EGTg36A66TRa9PiVh1GXjI3bOHWth2uNV4h1va4lMc9ZF+NleOZij0jbXy8uffpnGqWDAYEc8p31Ra45840XuctP7T0bPbgnZatib2tQ4adTNO/UC3I8pA75bOQVVrUyfhVST/NzyEisbUut+c7MDx4in+7g537N+tvzGUnoo/qX9mHjUJuS6+yMXNSnJSSOsbXF8Lf07pzGu9J2U5MpIN/SHT7Uoy0Y2btujtAVsLTYchwnxEmRM4/ZrvEoAwzEC1+E9/QzRQ88zJHWR4PJxuGRofTmOov5iIECNYg9/1hsLGZIAghQQAVVPPrnITeRz8IrewawJ7mYKfYmdO7uOFfB4eqPtU1v42F5wb5UGbDPw6gX9LH8o4+SuH96TILFYivUQulqdJMudzbLznJgsVSdTRqrdGN78wbWv3znwe22rYY0TYMrnisLCwzHvf0nDexnXGNo9JY/KfVCtr7EfDkVqTcVMG6uPmUi1ge7x0mkbubWGKoLU+18rjo41H5+cqm7/APED0XPZdTl5SL3H2jUp1KtCn2g3DnnkR8ReIW5kKsxONr+CeWLywafmPv8ABo1bA0eLjZVByzNuRuNZ00qym4DA26G8o292NxWFprULKVUhQbKWORsSSDc5crSX3HDvS/eHqM7VABmb2Ck6Dlck+0k4/puzklhax7tk7T2jSLmmHXjH2bgHLWw58/SdQlV2vup8St8VHKk5sNbkaayV2DjGK/Cq3+Kl73+0t7BgefIHv11mWlVozLHHXaLv7JYQ6ouDbW1x4jMfSFFrMkRLG+Y5/nCMKn8tuhI8gcva0EAQLQWghwAEQ9JW1APiLxcEAEU6YXQARcEEABBBBABQOkYpDJl6MR69oezW8o7yMQ/z/iW/+U/9XtADPN9NiiifioOyx7Q5AmUjEJZu7lNw2pgVrU2psMiP0Zl+3dz3oZ8XEGIUDO9zOvFlVUz1uHnTpSfZWsagtOXZmNKVUYXBvr4SerbKKIVbXUfSNbtbsvia9gbImbHxOg8c/SW3Wrs75yhWz8Ild+92DUpjF0BfjAZlHeNRKluzQZqoUqbHK3jN9wmFC0lQ5gLby8JwjYmHDca01BPO2t5zRz0qZ5mPnaqn/Rk2z9iVPjsKJ7SsBfkM7azaMHTYIoY3aw4j1NszInZG7VOhUeopN3N7Hl4Sdk8k9iHL5CytUFyIjrG4B6iNrFU/lI+6fY5ySOQF4IUOMCp/sycjD1cO2uHr1adu4OeH2tLPiqAdWVtCCD5yt7HHwNr4yllw10SuPxW4Gy/llpaJGm+7RndbdlsOXKrxK32h8620GfzD3kdiaKj5XDHmtirD+UzUyBOWtsuk17oM9ZeOZo6o8v3IpOxsCxDVGPAgVhxHLVSMvWD9leBzr1iMiVRSefBxEkf5reUsGM3So1AFuwW/yhmA9AbScwWDSkgSmoVV0AhLJaY8nITg0vZTP2r/AOBSF9aoFuvZaSP7PMKyYa7G4drgdAMvWSu8Ox0xVI02yOqnmCNCJTMImPwnYVCwzAIsVN9CUJAv3iCdw1NY2smD406dl3p7aol2TisVNrnQkagHnbTykZgMUa2N+IqMaao9IPcBQbhi1tTewXnp4yN3d3TLfxcTcuxNkucgTfO2RJJJMueHoKihVAAGgGUw6Xglk+PHah36HYYiYa6zBygGp77N56H6L6wRNY2APQkeuY/1BYsxAhNoIDKnt3aTtVamDZFsMuZtc3/XKbhHZm4Qc3SLK+OpDVx9fpGBtije3F52MqJItOJmzllhR0rjx+zSKbhhdTcQVKgUFibAC5PdKJhtpVEGRI0NvGxE78dtP4uHKHJhY+IU3IPkD6THxOyb47v8FhpbWosbBvYztmdo9rWly2HizUp5/ZsL9coTx6q0GbDorRJrrG6ugP3W9j2f+b2ixBwX4l+8P7SRzMTEPTB1F4pWuAeovBAZXNo7sipW+JxWBtdfCduxNjrh+O32yD32Ata8lYhz+us1s6oq803HVvoTxXigLQKsUZkkJMBMF4V4hAMdpfN+IfSNGGW0PQwGLtBHHTOCMLKnvUvw9oYDEjRi2Hc/jsy38wZa6osZWf2iUidnvUX5sO6Vh/6bgn2vLHTrioiVBo6qw8xeIb8IEOJh3jEHBBCgAcK0OCAAh2ggiAOHCBgEADqLcEd1x4jMe8RSPZHTT0Nh7WjqnSNUxa46H20Hso9YCFSl7yYZqdY1D8r2z6EC1j6S5xutTVhZgCJuEtWVxz0dmfisNImjS43VFzLED15+A18paDsDDsxIGhsQGIsbdAcpKYLZ1Ol8igHrz9ZZ5V6Oh8iNdFa3h2eUYuB2CBp9kqAM+7KQlCupcKxIGuQBJ6WvNJdARYiULeXZ60qwKgKGF/65af8AePFO+ma4+Tb9LGaht2gCEJPCT0DGwJ65TswG0npiymwkzu0iVKBRgGCsR11sfreO1t3KJ0BXwJHtp7Qc14Y5Zo24yQ9gtuU3tqD+clQ2anrl/SQNDdxF+2/qv/1k2qWWw+za3lIS19HJkUP9Ids2HRj6HtfmR5QQ6vzA/eX3U/8AUfSETMk0Ns3SBRIbenbK4Wjx2uWPCoHUg3JPLK/tM9G99amGIY9tr2vp3D9dJSONyXR1YeJPLHZGuGAmUrdXfQVmFOrkTkDpn3y5PMSi4umRy4pY3UgEwiwlB3t25WpVHVXy4dB4n3le2dvFWDX4ze/WbWFtWdEOHKUbs14xQzBHdIzYu0RXpB8r6HxkgpsZNqjllFxdM66FUFReCR1QspIGn9c4UVszR14nCirTq0W0qIyn+ZSJEbkVS2CRWPapFqR7ihtJ0GzAyvbArinjcdhrW7SV18Kqi/8AqB9DAa8MnocEEYiB25tw0zwJrzMgqm16xHzmK3ipEVmvzzEi+KdMYqj0ccIqK6O1to1su2cu+Smzd4HBAY3HfIG+UU2DZAlQ6ODYdM/zjcUzekGqZodDEq4upuJGVN5KIyFzmR3ZHWVfB7Qakbjwt3TlozCxL2RjxVfZf8FtOnU0Nj0M7RKBg6vCby+0zkPCTnHUhmxKD6HBoYmoO0D1Hvr9F94pIiubLf7pz8NT9LSZAMxp2hubm0UBaMCo7XoYijXetTbJhcL95lUsdBmbLe3O2o0PDi99cTTdFekiAkEtYsGTnw3YWNjzPfLBjAtSuVYjgROKoT0J4US/3TZ2I52A0kbvNs+lVdAGsS1mOd1yyte1reIlo0/J3Y3BtKa9Fi2TtRKyggji5qDn+tNL+MVtLZlOuvC4uO4kH1Epm0t3aiqzUn4lWxA4rnLPsvqpGZsSR4aiZ3Q3k+Ovw6p/iqDY6cYGtxycZXHfcTLjXcScsNLfG/8Aom8HgqVBSEAUc+/xPOPU8QjX4WBtkbcjrmOUrm8m8ainaiw+Jx8PaDALqCwJsCdLai7CL3LANN2LF6j2LEm91z4eH/hzb1MTi62Zh4paOcjo2dvVh6rcFyjXtZhlfx/raTqyAr7r4cu1QLZmBBtfU8/HLWdWwsU/ao1R26QW7cmVuIKT0ayZ68jzyTS9CnGDVw/skavyKeaMPQ9kk+AYnyijDNPi40OjAj1H/eN0anEqsdSBfuPMet5giZt+0F6orEG5UgcIOmmfn/WUPFuAQek27ebZa16LAi5AJXxtlMRx1E8fCeWvjfOduCVqj3OHljLFX0IwWM4HDdZsO528P7xT4WN3Ua9QOvfp6zFq1IcXDfrad27W3nwtRXXlcEHQg8iJvNj2RTPgWaNLz6NC/aNs4BRVHgfPT3+szP4nDoZpm1dr0toYN1pnhqWB4SehFrHmL2mTpfMn7LWP68pjDdUzPFuOPWfldFv3f3iamwBva4JHhNU2NtRMRT408wdRMMAs/FnY6DTLUk3162ls3D2ywrqgPZfLPn/e/OZy40+0S5OBThsvJrq2MEaVsoJynjDznIGVra38LauErfZxFF6DfipnjTzsz+kktgbUXEUrjUaiRu/q2w1OuPmwuIpVf5eL4b/6XJ8oPo3q4y1ZZnhXhswNiNCAfWNZmIwcG09nLWGesrdbdysG7JBEujGwlEob5VExDU6wAX4nCG5AX98ucrjcvR1YPkaevo6cNu9WYjisBz5yzYrZqPSFMjQWHdYZRht5MKKnwzVUNYHPSx07WklVN8xFKUvZjJOfTfRm+MoNTfhcWzF+8X1E7cHhDXDcAClFFh1zOpklvpRACvbO9r9AL/1jW5lW9Rh1XPyI/rLOVxs63kbxbryQ9qqVAChyvcEXv0lmwO2KmQKMf5TJ80lPIRQQdJJ5E/Rzz5EZruIqk2QOkN0vxDqNPCJjgOYPlJHKxql8ovmdCe8ZH3EUYlciw6G/kf73i4AUHeTadTC1eI0y4dwAoyBZWdlJ/wDd/wDj74zi8QGZmByY8Q8H7Q9jLRvTslK9I8QuU7S+I0/p5zO9mcbLYFv4Y4WFssj2bkjUDLlppOnG00enhcZwTS7XknMNtZkNgbg5EHmO+849ulKL0KtP7XEWH4CoItyBVmFujRpwBb9X751Y3CD9zaq4z4l+H1N9beIv/lm2kikVFST+yy7x7Jp/ulX4ai/w7g6k2zBudTzkB+zDFEsyixUoWuOV2W2fh7iXfC0D8BEbUU1U+IUAzPqOza+zajGmrNTJNiudgc7Fbdr+w8TGLtOJzYnvCWO+/RpbMALnKV/Z2IZ8ZUalb4QUK7ZkOwvw8PK6ksD3HwtXV2pXx1WnRAdad/4pCugKXDHiuLBuyFABPzEy+4WgqKFUAACwA0mGtSMofEqflnQWsVP6/Ws56ORdfuuSPB+3f1Zh5R1j2fDONVcqqnk6W/mpm49mb0mDnF1FuJjP7QsItLFZZBwGPcSbflNmMp+/e7oxCca/OmY7+ZErhnrI6+FlUMnfhmOVqwDX6WnK9TM98lsXgsi1s9D+fnOdMHdSek7/ACe9jkkFsLHvSqhlPl18Z1bWoWqtVIsrniGWXW2vIzlwqgNY5HlLjQwBxmBKL81OxF9SD+WUxNqLs55zSu//AH0VB8UCoVeROfPkdbd07N3Rw16ZLcI4hdugvI0YZlYqRaxtnJ6ps8rTR15/W8JfRRa00bXRqhlBBuCLgwTOtn7zmnTVCT2Rb3gnH8Ujx3xJ30Pfs7xzJV4X0fs/0mhY/BLXpVqDaVEZP8ykTO936y/GTLRhaaSG7Y8oZf3BzlWSyO3WxLVMHRLfMECN3PTPA3uJKgSM2HT+HVxdDktUVl/DXXiP+sPJKSON+RrF1QqljyEzits44uuWeyUUYni0B8Osum81T+EwHMe36MquLepW4uHs06Q+n5yuNHZxrim0QO3dgojK9AsyniubE2tJbc/eo0WFKs16RyBOfAe/oO6FhNpsmQtboReDHYKjiVYooSqMxbRu6Wa6qR1uW0dMi6+zRsRQSotmAZT5gxjDYajQHZAW/v3d8pW6O8rJSNCpcuuVO+fUcJ8D9YW9m08Wi/FCKgsFLDNiWyuLjId0ho71OJcee2jfRfqGLV72+zqLWIuLiVinvmVqtSqUrWNsjn6c507h8Jw3EDd2N3ubm9rAnyEm6uAps3EVHF1tnF0m0zC+PHOUZKx7DV1dQ6m6kXEe5SvYJfgYoUla1N1duEnLjBWwXoT2jbulhSZaolkjq+vAVU9oH7y+40+rQXhVPlB+6w9DkfZjAYiYTC4kPit3aTHiHYf7ykqfVbXkzBGm0bjOUfBVNobtV6ll/eWCXHELU7kDkDwg/WdlDdemHR3Z6hQgjjd2FxoeEm3tJ+CPdm3nnVWGI3UQHURRMImZJDVOgq6ADwjkK8EAsUh5dYziP8MNzpuGPcvyv/pZvSOBopEBLo3yuCCO5hn+cAEmM1lvlBh3JQE/NazfjGTj/MCIowBGb7xbqVA7PS+VrkjpeV+jswhrHS9jNjdQfOVjbewf4YWiALHO9+tz53tLxzOqZ6WHlvxIzLHYcKTlpNB3B2e9NCzqVDLkD3W1HmfScuG3Yf4tJnHZuC1uVjcDPXl7y8ovSPLltUg5WdOOsfZU9vbnJWf4iHhPPp6Th2vsKolOlTprxDi7XXl/eXqFaSWSRCHKnGvwQVHdulwi6i/l+Ygk7xQTOz+yfzz+zMdmYgAplYixv4TUqNbiRHHMCZxsTZxqkKBa2pmiYSlw0wv3R9JvK1Z082UW19i6y8OMp1OVai1I/ipn4iexqTqace1H/gJV50aiOfwg8L/6GadeJyMmcBHbXpcVMi3I/SZ1g9uMgqYdxYnIHmTe30mntmJQd5t1Wav8dRxC9yumkrjkvDOzjTj3GRF1Lx3ZmJ4KisRzF46aSi/GWToChPuIMDRTjHHcKM/lbPuAtLuSaOpu49jOyU4tqEMMmd8vLiH0lv37og4N+i2byBkbsHDmtjWxIQrTUWBPM2tl5c/KW3G4ZaqFGFwwsR4yEpdo5s2SskX9JFU/Zw4C1Dxa8ICk5+M69s70VKeI+Ei8Wg4QLkki9+6wkRiN069Jj8FgV5A6jwMl92d3np1Gr1yGciw1Nr6m5zJjlrdm5/Fs8jd/g7tjbLLOcRWH8QkFRrwADLzz9hLEpjKxQkm7OCc3N2x5Vvxr95f7fmI0lS4B6gH2jqmzKeuXrGAtiy9GPo3aH+63lEZF3h3iICYCFwiYktC4oAKEKJDQrwGKhFolmhK0QCrxTPZlb9frWNEwOex4Z/rygMNhwu6/8QYDucXJ83FSIZukVjKmaMPtAqe8jtL7CpG1yjEgxCMF4ljFYxJEMGJLQi0QxQEK8TxQmMAHIIzfvggA1gsKtMWUWncjTlBileKwbvs7cMgqI9JtHUr6i0aw9UtSQt83CA34l7Le4icNV4XB74uuLOy9/EPB8/8AcGml4EBWgIjZaHxRAE1BDqog/d16D0ilaFxR2PZi1UDQWiuKNAww0LFY/ADGuOAtCwHgYYMY4ofFAR01H7N+hEPE/Pfkyg+an+jD0jCtdSIqrUvTQ/dYA/zdn819IwFXhXzjRaETEA6TElohjCZhlcgeYgAstnBeR+J2jRpm71UXxYATkfefDDSoX/8ALVn/ANoMLNak3CJkE28yn/DoVn8Aq+vEQfaJbauLb5MKB+Oob+YCW94tkFMni0JWvlyOXrIA1doN/wCAo6BGJ/zFyPaAbNxrG7Yth3KtNQPAqob3hYUTjNaiSdUIa/QKe3/o4oC0q+392icLWPxqz1ApccVWowPCeIgKzEC4BGXWSGB2whpU3d6alkUm9RVzIF8jbO/KFhRLsYUh6u3aQy+IG/ClRvQqCI2NtE/LTrt/KgHrcMPSK0FE1aN1DboPHKQ/71iWNlw4A6vVZvVSPzja4PGEnt0qfLsJY5fiJ6ws0kTnGOvpn9Ik1B3+lvraRI2JWP8AiYqq3hZP9gEM7uUvtl6h/wCNi31hbDokv32nzYA97Lf6wTmXYeHH/wDMQQtmejp4oXHBBEIc4o9tBv8ADqdQVPlmPz9YII0A2XileCCAw+KDigggIAeKJhQQsAwYd4II7EDih8UEEABRqZ28vXKP4UdiomuRI8RmLdOUEEaEVn/8zin+SggB+9V/IJ+cUf39/t0kH/CrEjzZyPaHBJptm30AbIxLfPi38FCJ7ooPvD//AFemf8R6tT8bu49GJggjoWzOrC7v4ZPlpKPKd1PBUxoijyEEEdIVsfCjlCLcoIJoVhrCJggiGEzcuuX9ZG09jUF0pqIIIMEzop4dBooHkI5wiCCIdggJgggALwjBBEFiC3fBBBALP//Z;" vertex="1" parent="3rs9vHmOBtsUDxQql4TI-8">
          <mxGeometry x="13" y="70" width="105.19" height="70" as="geometry" />
        </mxCell>
        <mxCell id="3rs9vHmOBtsUDxQql4TI-34" value="" style="group" vertex="1" connectable="0" parent="1">
          <mxGeometry x="730" y="200" width="160.27" height="170" as="geometry" />
        </mxCell>
        <mxCell id="3rs9vHmOBtsUDxQql4TI-35" value="" style="group" vertex="1" connectable="0" parent="3rs9vHmOBtsUDxQql4TI-34">
          <mxGeometry width="160.27" height="170" as="geometry" />
        </mxCell>
        <mxCell id="3rs9vHmOBtsUDxQql4TI-36" value="&lt;span style=&quot;font-size: 20px;&quot;&gt;Human Review&lt;/span&gt;" style="rounded=1;whiteSpace=wrap;html=1;verticalAlign=top;" vertex="1" parent="3rs9vHmOBtsUDxQql4TI-35">
          <mxGeometry width="130" height="160" as="geometry" />
        </mxCell>
        <mxCell id="3rs9vHmOBtsUDxQql4TI-40" value="" style="shape=image;verticalLabelPosition=bottom;labelBackgroundColor=default;verticalAlign=top;aspect=fixed;imageAspect=0;image=data:image/jpeg,/9j/4AAQSkZJRgABAQAAAQABAAD/2wCEAAkGBxAQEBISDxAVFRUVEBUQEBAVFRAQDxAVFREWFhYVFRUYHSggGBolGxUVITEhJSkrLi4uFx8zODMtNygtLisBCgoKDg0OGBAQGCsdHSUtLSstLS0tLS0tLS0tLS0tKy0tLS0tLS0tLS0tLS0tLSsuLS0tLS0tLS0tLS0tLSstLf/AABEIALcBEwMBIgACEQEDEQH/xAAcAAACAgMBAQAAAAAAAAAAAAAEBQMGAAECBwj/xABCEAABAwIEAggCCAMFCQAAAAABAAIDBBEFEiExQVEGEyIyYXGBkaGxFCNCUmLB0fCCkuEzNENyogcVFiRzdLLC8f/EABkBAAMBAQEAAAAAAAAAAAAAAAABAgMEBf/EACIRAQEAAgMBAQEAAgMAAAAAAAABAhEDITESE1EEQRQiUv/aAAwDAQACEQMRAD8AnoIAQUcymUeHt0KYMao0qZWIWwFSsiKkCIYEtH9VAI11kRIat5EaH0FMagkYmJYhJWoKk1Y1KnN1TysalL26oJCGrC1SBqwhMBy1R5UQQuLIDbGqdrVyxqna1INNapGtXTWqRrUG5axVTpFVOmk6pncadbfbcOJ8AdPO/grdNoxxG9jbwSzCcGa52vHiVnnlrqNeLDfdU91GRuoZIuSt/SehbGBlIOh8NiqvILD0WctdHzjYEkp1ywWUjpFw0arbGufOTfR9gE9ni+ouLjwv+wvVuh+I3L6dxF2DPHY37JPab/CSP5vBeL0T25xrxG+3kvQ8PmdTy08riSGvDXaAjI/suOnmD/Crl7Z2dPTV0AuWqRoVs3bQu7LGhdAIDVlmVdWWWSNxlXLgpCuCmSIhYuisQHmtA3Qo5qFohoUWRooU2USwIZgRMSmVdnSUBbAWwF0AqQ4KFlajSENIEAprGpTI3VO6sJRINUghsuSFLZcOCAhIXNlKVxZASMCnYFGwKdqDdgLtiBxCrEbTdKsLxVxcb7X0STasVWPq3eSW0054FGvmDmO8vzQ1PABqVhy3Vdn+P3jQGJxPktdJcUiytFh4J/iGMRtJYxpkcNCBqG+aV1+H1skZldHlYOTTYaXsTzSxxtXllMVXe5MaJoLez2nHQC3PxUM7Y2k5HCTQdoghoNgTYcddEbg1bZ2u9+Q+C3mnPd1v6LFE68wdmvbIHdS0acXljif5U7ixqB0PVF73NPcLxZ0RsRkeRo8aAhwA0OoBS7pJhxt17SXNNg/jkuBbyGoHmUipAHyZMup0aeINtEZZdHhhLe30nQztfGxzXBwcxpDgbh1xuCjWqpf7PmuGH0wduWF3o57nD4EK1k6LWXc2wymrYnauwhoZLogFNLpYsWIDlyjKkcuCgOLLFtYkbzqiG6Lsh6MIsBQqNAIhgUARMaUVUgXQWmroBUhhQ0gRDkO4oMuqwlEo1TmrSiQapEiIUTlOUO8oDgrQWiV1CLuAQErCpmlMaSgbxSTpHU9QeyOHBKKs0Jq8J69tij8N6DRBoN3XtvdR4DWdYxp5hXigd2fRCbHmEuEz1OdkLHRxMkcySV5AkzRusWgA7++nEJBWtfTtDhLI6MW60XAcAXZdHDhcjZemYvVdROeyTHMLTZRctc0WbIBxNuyeYA+7Y1qtbC8xxBpc45WZiwx3aHX1BF9hysll863WvFveoQ4ZSyAZctnMkzFpy5nAsBaTrtdx113V0wDEQHS09QQI5Y7tcRYROF+8TtplN+bVU8UeXVTjF32tOuhs0aa30RGF1Dp2G8t8jsjgWC7Ta40vb1ss8efU6jfLg37VeqMLyvlfazHPcWD8JcSPRA0dhKOAvYnlcqw9IYncXl3nYfJVaV+XVLjtt3T5ZJNLbVVzWNnYdWmFzP8AM4sAYduDre10v6KYEZZHMlje3OwFkhaQWC7XXBO123F/FC4LVkPbnYHAuBIcM3HkdD6r06asa3q3uIAF9dgBb5WWmUYY0z6OYqx5khY0tNOREQbagCwItw0TeStsvPOimInPPVAdmSd2QbEsDiAfNXqWeGzHOcBntlvtcm1vDVasbBjqzKLoqlqC6yBdDpZSQnIl2Q6qq8iIgkuLoAHObouPQJhM5y4Lly5y4Lkw6usUd1tPRKLRjdGBqFo+KNaoU4Y1TxBRs3U8SmLtd2XLnWUlkNOVaEU1QhPpGqjnkS6SWxSBhPJcJbJutidQPlSDbkHK9TPnCVYjN2SQlbqHjN1JUS6aFQUtRlcCSqzNWyXOqGbPIXDtHdR3Wmo9Kbj7WDUpPiWNRSG7lX5AS0XQcsanuq1IunR/Fmulaxmy9MpXdkLxbog21S3z/Jey0Z7IVYpySS07XG5CrnSGPqJopQOyRkuPsvBuD7fIq0EoLGKQTwvjPEdk/dcNilnjuHx5fN28sxXFQJpGsaQHGznMAL3m5u25Fg3fmoKCpdCHkNcMzsxbY220Vswukfcjq+qtZvdDydSCLi2ml9eaUdLacMNs7r8bEXGp2I0F9NPDdc/Xjvx3eyyorGytvqN7tPBV+vbrpsN+SZz5aeLsixcCXcSSeZSGSoLt/ZdHHP45ebL/AFRVLIRoDYcTexsNd0yqcTlqGRUzDYC+Yi9rXLje/ABImK7dEMEIa2R7bOlc0NB3EdwSbfi38gFtJuufeotOFUIighiA2Av521U2LPOaCL7Jfqb2tcj9fmmEEV5PJKcdZmqGMvbUXPIDtO/0goJZ8OxvrGAmMjltf11KPbMH8gQSCL8ilFJAOrbYEAgEDY24XUoaBsPW5umnR5BopJHkJPFXFvP1sUUMQaR2tE9lofnWFyA+lt4H9Vqnqw4lPcIdmWIF0/isRsK1R8Ua1BUe5RzVCmR7qaNRsGqkYkpKSg6ool77JbVSqkgZXbpdMdUbIUDMlQgc5RPK7coXlIwdVJZBTPu0qesKEGosoy8Vh6RTblSYbROld2eCaf7gkfqFY8AwcQjVGPa8ulcraYx2BS2VjuRVvxKIOmAKnrcPZ1eg1slIdyV3or/eGea9io+6F5hglC5srXFttV6dR90I12m3YolcPF1JILBbLbtafVaSI2q/SgugLDFlGcE9u5bmba+t+IN/Qqm1x1MlRIC7cAaAc7Beh9LMK+lUzmA2cDnYeRHy0uPVeN1GHVRe5hje4tNjYEga23WWXFuujD/IuOOguN1vWvOXujRo8EJT0jna7DnzV5wX/Z04h7q1xaQLNjaQS0kaOceNuXgsw7o1NJM5kuQRRuyukYR27bsDQbsdte+1xbw1+bJrFlMscsrcqG6IdGxKeumH1bT2Gn/FcOJ/CD7lX+igDp2fhu74W/NaDA1oDRYAWa0aAAbAI/BISQ99tb5W+mpWmvmMrl9V3G3JLrsUoiojUzTvvbTI3j33ZXH0YCP4k7riLF3JpIQuBw2hFu9Ic1/utB0P75qFGbm6Id4RUiHeEEHe8AEnYKv11e8usy/kN0zxCQuORvDcrmGmbG29tTueKZFANSyzjIG32Djcn0TJtdm7UZ7X2hwvzHgiwGnvNB+KW1dF1MgezuO0cPunh6XQTsYo/itJXUTjO7zKxZ/Y0dUjtSjmPCTsqApm1I5p/UX802a4LsOCWsqAuzUeKf1BqiJ5EqqJtVuqqfFJp6wX3S+oPmjzKEFO7VDurRzUDq5vNL6h/NEOUEiidXNUEle1H1B81DWlDQO19VHWVoQ8U+YGyVvR4yyrjT4hGG6kbKVuKRnY8FQqjNY9opl0Vhzg5iTqnJ0VvZrV1jOsDrog43FoCVWscjs8gc0jJs9oJ4oxm1ZXUen0+JxuLQ0cQrrhmuX3Xm2FMaAwgcl6VgzPqw6+49k9f9k76EYh3LhSjut8gsmZmYQoKZ92gHhorSAxqpdnjhZu86+SLr25KZ2Y625WA5AeyGghMla9xHZjblHK5/pf3RWMNLzHEB3ni/KwOv78UALis3Vtnk+7CX25loJXkGAdIXUcuaYvfG/+0F3OykuLi9rTxu4kgb35r1Tpa89VMB9qFzTwsNCT8F4xUUxe+CO2skjWAC5JzOA4ea0niL69jBD2hzCHNcLtI2IPIp/h8WWNo8LnzOqoXRioe2Z1JbsgnKOLddTfkvRilmMSfHjlidbj+eh+a7wH+7sceI08GjRo9lDj3adDH96Vt/K+vwTKniDG5G7N0HgOAULZIoJnWH74Kd26XVUt5C3kwfE/0QA7Wgb6uJuG/qluLVji7q4tx3ncAmc4IFm953H7o5oI07WCw1O5PEnmUAHRks3cSeN05ZIHNIIuLahJXXBR9HLwQlWMTLWzSDTvG3kdR8CsW8awYyTvcHHW2w00aB+SxYXDLa9xLGiY0MxEMWLpFxqQhQRlS3TIHW7KvVR1T+vOirlS7VKqiMlDPKlKgeUlOXFDSlTuchpSnAEqCpcPO6gnKkw8rWeM76Kn7pTXofs7zSmY6FMOichGYeK2njnvrWOD60+aQ1MJdI3wKtVVRmWUgc1y7AnGRkbRdznWbw18fBHH6M/DLAad0pjYwXOl7fZHEleoUsIjYGjgN+aQ9FejwomOvJne8gudazRYaNbxtrxT9jzsVWu0zxNFqELaxKIpzuhMUdljefCw8zp+aYSYO7M1zvvOJRDNZHHg1oYPM9p3wyqGjAjjAPBtzz2U9Owhuu5Jc7zJuUBTemsmZzo72Dixl/BztfgCvLcWcW1UPVGxY/Ow8rP0PsFfemzi+dzQ62XPM4+Ecf8AUrz+pdapYeVOXfNaTxF9eudCmCXNVFvame7LzbGw2Df5r/Dkra5I+ilH1MDIr36uNrC7gXHtOt6p2oy9VCKukH0tl9o2l/rlsB7kJvG0gC+51d5n929EjParTyzWPoCQPh8E9B3SOuXJM9//ADPm35XTSV6QSzZaplt3NeBfbQt19roBnICbnbx4pdPLfRgPntf1R8rCdz7blAVTNLajy1PugFFYyx7T7W3A1XVNXAENY0nmdrKOeEDusJ8TcoU08z9O63j9kII7dOCb5StpM2laBbrj6HRYkGR07kQynciWOUzHLH841/SoI6cqXqCiGOXZKf5wv0pTWwafu6SSUVzqxw9FZqgoVrgVU48U3kyhH/u4ePsVC/C/3qrK1y7HP3T/ACxL9slWZgxdoELUYYGkg7jdXbKCq3i2HPicZGXc1x7bdz5o/KHOaq9U4YbXDTbnY2UFLTEG1ldm18boGta8Me0WIdxUDIYsge4hzr65Vhc9dadU49zcqvOwmRw0CLwPDnw3uNymkuJ2sGjRSxYkwd4+6JyzxN4b6ho439cSGkkkAAcVccLwMtkE0pGYAhrBqG3Frk87X90r6J1TJJXEWuGkDnc8R8Vbgea2w82xz3LqsAI8lI1yidcggHyUVOTmsTry9FohPDM0Oy5hci4bcZiBxsgOk9W2KEPdqGnrHjm1gufjZRVeCRTTMmcXBzLWsSAbXt4gi51BB1TCrpTJYOaDa+5sCD97TUaDTwQC7BcYNVBFK6Exl13mMnNYNeWtN7DQkZhoNk+hvYXQUEYY2x34nYGwsLcgBpZFRSX0QHlXS+otPOPvN6vy7eY/AW9VTpv7yP8AtwPd1lZOlxP0yT/qkezCq1VX+laC56pgA5nONFoz/wBveOj1/o0bju5ocfUKfE6vqoyeJ0aPFd0FP1UUcf3I2sv/AJWgX+CqHSKsdUVAia4tjawve5ps9wvYNFtW3JvfewsFDSD6KQOEr2kEtkZqDfVrRf5lOhN2ARxVQOFCJpNN9U/fQuMbzykbs4G1r78irRhcl6aF5Fi6JryOLczc1vS6QbNzulb8ObLUse86Rhz2t4OLrC58B8yEYJ7vUlO2znH0Hvf9Ew6lQcrkXI9A1LkgCqmB3Ejy0SiagkBzNfexvqmk6AlmLTcf/fBBOW1LBo+JwdxAHZv4LFKyoaQDmt4HcLEgnDRzXXWNHFVCOte7ZxU7JHniVp+c/qPu/wAW6KQHYqa6reHl4cNdFYQdFGUk8qpdoKgpc51joj5ylkp1UKFskBCkZMNr6pXJKBbxQLZWZZQ4WdlOR1zofNK80nSseC5drODZdkAhV7AsTuwNkeC7ncap21/HgtWFV3pHhBH1kf8AE3mlOCQyvd9WDa9nch5q+EAhJ8ho5etYLxuP1jOX4gs+TG66bcWU3qmJwyzO1a9kmxChjsbmx8FeoWQ1EYINw4XBBQz+jtMO8CfMm6wvFlXVOXHFScLjbTvD45T4hWWHpS9pbmAc08RoQhMdwRsZBjGhSmlFrxnzCMbcboZSZTb0CGvD2hzRoeIIKkheC8b3sfkqHQYk+B128+007HxCtFDiDZXMeH7GxbxF9NvVdGOUrnyx0et3RIKG4qdqpDCLrI2gFYsCA8e6ZNtVnxqX/wDi5LcHpetxanZwJY4+UZLz8GI7plU5qgO4fS32/wBSO6A0wdiMs57sNIP5pHkN+DXj1WlRPXpGLVWVuQbuHa8B/VU2soJWVBqGML43x5J2tF5WWtZ7WjV4FthrvoU9LjI8k7kpxTRZQoq1PlxyIs+qeJn/AGWR6kk7ZrdweJsrU8FkLGndsbWnlcNAU7aVn3Rqcx0AueZ5ofFXdkpAqbL2gmzG6X5quvk1TyhmzRg+nsnQ3M3xQUp5o2RwQc5SACdLZjqmM4SyoQSAsaeCxausQEGDwNE7mkaW0TCWiGY5UJFJZ4KYiS5UG1T05BTG+igjDjsD7FECnkOzD7IAWodolMztU9kw2Z2zfcgIU9G5ydSwepP5IBJWQyPb2Mv8RI+SrWIYLLI9vWzX10a2+Ue+5VpxDD54JMr9Q7VjgbtIQM1NUu0tGxv3nEud6Nb+q5bbK7pJcdeksnR9sTmOuSL66qyVNSYWQuhItcdYCdNeHglDqDrdH1b/ACa0NalT8IOctdI4tvxJsfHkqxy77qcsJrUxej09QHAEbH1siHNDhY7KnYUwQzAQy3YW9pnC48Fa4Zfb5Lrxy+ptwZ4/N1QMNQ+geXAF0Djd7Buw/eb+YVnGMAta4MLmuGjgQd0sexrxY7FK6Sc0Eln607jrxMJPEfhWfJMpN4tuHLC3WZvW4nG8CMggk6XA0KQz0pbJdx05qw12HxTDOxw17TXD5oarprgA7291zX63ux1yYSaxpKILE31F9DxWXdGbtNl1NC5p8FGZeBVTJFxWvDuk8TwBN2HcSe6fG6sEFSx9ix4cPAgry6RwsuaZ+W5DiPIkfJaTl16zvFvx6xLexy2vwvoElx/GjSxhos6Utve3ZZ+Ij8lTWY3MO7O/1N/mpMP6QubO0TOzte7K4uAJBOgK0x5JajLiykVnFKaWYx9Wx7z1wJytLrdl1ybbK7dE8JligdnYWukkzEHQhrBlaD65z/ErKC0d2w46WCnbICL3W2VYTpBSU+XdFPlCjLwo3vUq2KbMChqpgfodlCZl02cHQoCF9HHa2Ufmspx1bcoGlyd+aHr5SxwN9FG+YkaFAS1EjrEqJsmYA8CN0P8ATPvIFlWI5Mt+w7VvgeSQE1Uob+aXVhGhbx25FC4vXZZAAdCVwX5mObsdx580BnXN47rEu+l89+K0gJ8Q6MSOkdLDM5jnHMWBr2gH8OXQ/wAy3RVGLQVEUTvrGF7c8rowY2svd93gb5b8TqmX0XEj3qqCP/KzPb+ayGq6SaNpfNirtNbRsDHHyGchLRrzFUA7Kds3gvP+jeKZp2tbPUyg6nOYerAt3iGsuB/ErywpWWeiWXwT13gtGbwUQKy6RlHSqGR8YfGLmPMS3mCBc+llTnNlk7ovpqScrB5n9F6OSFVqrow8E9VL2Tsw3BHhdY8mG7uN+Lkkmqqc9Pkd/bgOO4Y29vV36JVXRZXXkkc7kCbk+if4lgtWD2ICfxizj6aqGh6ISuOesd1bd8t2uld+Tfj5JY41plnAFDXG4J05baD0VkoMRDuPmgcVw+A5GwDLlFsxILnedt0lqWSwG41buHN7Q9bbLpxs1pw8mNt29Agn9vkiZGte0tcLgqj4XjoOhPmrLSV4I30+StntDTVLqB+R9zTuOh36kn/1+SfSWNjuLaHgeSDlDZGlrhcEITCMSdQvEMxvA42jkP8AhX4H8PyU2Ncc0hqopHFjXXI0J4X5X4lA1dNYq8Oponi5jYeN8rT8UPJhEJFg3L5E29iufLj/AI6MeX/0ockOixoAbqrr/wAMxHdzvgoKvokwjsSEHxAIU/nk0/XFQ5gNUvqZLWN9iCrNiXRipjuQA8c2nW3kVVquByU6va97nT1OKS7Wn8I+SJo5NCPFLqeQCNov9kfJS0UwzO14Bd1vTz5OzHOo3PK4LlpyjZ6ae9YJQQo3hQPuEwyvnJFkDDVZTYrVbNolMlSls9HVWRbMEqrhmjPuDyK3BV3YWlDTPs0oJWaqqe91nbgpwyquxruI38QkU7TnJUpqMqyzy06eDi+jKaHM4uGx1WkBHXED981pH2d4lohoZ5HXIY0X3FiT802OBxOFnC/PiT6nVYsVbcwvDMIgg/so2t8tz6lNWlYsQbsFZdaWIDV1olbWJGEqYnO2kLfIBIqzo06Qkmod66rFiDAu6E33nd7LTegzAb9a6/MaFYsTib2k/wCDG8ZCfOzj7nVEQ9Gcndefy+KxYq2iyCY8Mlbs4HlfQrmso3PYWSN0ItcEG3itLE9l8wf0TEkNOI5n5rOOTmGcBdO/pAWLFLWeJmzrmWpWLFOV1Dxm6X1VboqbX0rQTba9wsWLzeTly+nqcXHjp0/E+Cko8TsSeYWLFV5s/wCr/wCPh/DamxC6bU0mZYsXVw52ztw/5GExvTuRouoJWiy0sXQ5CTE5AFVaipu7RbWKaqD6J1xdT1GyxYqiclbqtCUDUFYsWfI6P8euGk2WLFih0P/Z;" vertex="1" parent="3rs9vHmOBtsUDxQql4TI-35">
          <mxGeometry x="12.41" y="70" width="105.19" height="70" as="geometry" />
        </mxCell>
        <mxCell id="3rs9vHmOBtsUDxQql4TI-41" value="" style="group" vertex="1" connectable="0" parent="1">
          <mxGeometry x="970" y="200" width="310" height="238" as="geometry" />
        </mxCell>
        <mxCell id="3rs9vHmOBtsUDxQql4TI-42" value="" style="group" vertex="1" connectable="0" parent="3rs9vHmOBtsUDxQql4TI-41">
          <mxGeometry width="310" height="238" as="geometry" />
        </mxCell>
        <mxCell id="3rs9vHmOBtsUDxQql4TI-43" value="&lt;span style=&quot;font-size: 20px;&quot;&gt;Final Report&lt;/span&gt;" style="rounded=1;whiteSpace=wrap;html=1;verticalAlign=top;" vertex="1" parent="3rs9vHmOBtsUDxQql4TI-42">
          <mxGeometry x="-60" width="130" height="160" as="geometry" />
        </mxCell>
        <mxCell id="3rs9vHmOBtsUDxQql4TI-46" value="" style="shape=image;verticalLabelPosition=bottom;labelBackgroundColor=default;verticalAlign=top;aspect=fixed;imageAspect=0;image=data:image/jpeg,/9j/4AAQSkZJRgABAQAAAQABAAD/2wCEAAkGBxMTEhUSExMVFhUXGBcYFRcXFxgYFxgXFhUXFhgXFRYYHSggGB0lGxUVITEhJikrLi4uFx8zODMtNygtLisBCgoKDg0OGhAQGy0lICYtLS0tLS0tLS0tLS0tLS0tLS0tLS0tLS0tLS0tLS0tLS0tLS0tLS0tLS0tLS0tLS0tLf/AABEIAKgBLAMBIgACEQEDEQH/xAAcAAACAwEBAQEAAAAAAAAAAAAEBQIDBgABBwj/xABCEAABAwIDBQYDBgQEBQUAAAABAAIRAyEEEjEFQVFhcQYTIoGRsTKhwRQjQlLR8DNyguEHYrLxFXOSorMkQ1Njwv/EABkBAAIDAQAAAAAAAAAAAAAAAAECAAMEBf/EACYRAAICAgICAgAHAAAAAAAAAAABAhEDIRIxBEFRYRMUIkKBsfD/2gAMAwEAAhEDEQA/AC4XKULkhpA8dVgAE6pl2a2OKxzunu2m/wDmP5R9UE7Zzq9SnTbaTc8BvPpK+h7LwzWNDWCGMEN+pKMVeyuTovpsDW7gBa2gHAKqrU4Kh9fvH5W/C3Xqi2U1bRWRp01GpZW1qoCpY0uM7lCFLgqnMhE16wb1QRcTfn8lCESEPWpyjQLIeqEGrCmBhjd5Ug9gUK4lQbRKokqZanYR9oG4LvtJ4KDcOVP7OgMVYjEHKeizX2orQVx4T0WYKKFYQMSN6jXxDGtLjoEOVnNu4oucKbTygHU80yFbK9rbfeZDHBrb6fEf3yWfqYUm97r6L2b7Jsa3vKzQ550B0Ca47s3Sqg2g7ot8lU/IinRavGk1bZ8Ze0g6mP3+gR+y9vVaJgkubHwn6cFqNq9kHNnJfr+/3KyuO2RUb+HqrY5YSKpYZxNjsXbTMRIAyuG6deiZkL5bhsW6mbGCDPot7sLaxrUpkOIsY84nnZFoRSGkLxUOqngofaCgNYUuQoxXJSGLChLCF7CqbiW8Va2q3igE6F7lU2kcVa1ilhKAxEUGKbaSIoUroNhJU6S9yItrF73aWxgNjCSABJOgCPp7FrG2Ueo+aK7KUQapJ/C0x1JA/Vaeo3KDCujGxJSoVbJ2a2k1zrOfEF3CdzVftTFGjRbTbeo+wHM3P1V+z2ywA7yXHoDH0VFGh3uIdWOjPBTHP8TvYeqsSSKm7L9nYPIwN1O880TXqBjZspvIaEiq1DXq9234W3edw5KLYAvCg1DJ0U8ZjWs8DbngEJtTaQpAUqYlxsApbOwJHicZcdT9EQnjKJN3aq9tONVdUcGi6GNXMUCHPMql7eCua1JNubVyk0qZl5Fz+XrzQlJRVsaMXJ0hbt7aPiFKmbgy5w4jQJ/hH5mNdxAPqFkO5j6rUYCl92y5+ELHHI5yZpnBRSDguOirFEc1Y1sBWFYrxHwu6LLlarFaOWWKKAyuoQASdAlfZPAd/iC6LNubc7JywtElwzNa1ziOOVpIHmYHmpdla7qWGDGNaarnOc4tM2JlscYEDyQm6VDY427NpQwoiFN+GgJTsHbIrF1N0tqt1a4FpjiAdU7e8gLK412aVK+hDjsPKzmOoDgtVia2oWf2kFV7L10fNu0eDDHkgblV2Ne4VHRplv62+vqiO02JGYjgo9jsN8T/AC8tV0oXwVnLy1zdGp74rw1uSiQoEIik8wXoaOKoIXBQgXSoEmEa/BnTKgMG8hwumZrHigFE6eCCubhoQ7XnipSUBkFNYeKcYSi3LrdZ5E4JlVxOU6cUsgj0sAUO8CUYt2IEDL5hROLcLEGUpLNtsTZRoOzOfdwy5RpGqM2pXIdTA+FzsruU6fNKalatUqBwtBEDod6c4jxt5exB3ea2ceJS3ZXg6gDdbhv1M/NE4RkNA/cm5SWriAyo2QQLgn8JzGb8L+6a1q+RhO/XzKjQADa+Ke5wo0vjd6NaNXO5BBbQx7cLTbQpAvrP0H4nO3uPAIxjXMGVozV6l3cGjcCdwCpp4ehhJq1HZ6zviebk/wCVg3DkESHuxdjFn3tY5qpuTuHIIjG7Ta3wtueAQFTEV8RpNNn/AHH9EZhdnMpjnvJ1QYSinSe8y+w4I5tINF0BjdvUqfhBzv8Aytv6ncl5fUr/ABnKz8gP+o71VPLGJZDFKRbtDapcSyj5v3D+XiUkxLKdIS52up1cSnFVuRsNAssxtXaWX+JLQdC1sjzIusUsksjNkYKC0Du25RLwwZgSYEtNytxgmEU2B2oaJ6wsb2fwzarw54dE2Jlp0sQQZC3LQrIJeirI37PQFMCy8CmNFYVirE/C7oVlStXihZ3QrKlRAYfs3AipTqyDoB6ODiPOAEdtnZneNAacpF2OAHC14kDoquzj3ZnNnwwCRzkCfRNMfiGNIjNnO5t56tNvP5qmbdmjGriZ3D4as3KXuFRzRvhpLpsym/mNzuG5MMZ2oyS006jXASQ9unCXNlp03FPKFA2dUgkXAAsDGvPU+vSMzjcI2tXfnPhy5Y/CTMieekeaF/I/H4FNbtFXJl1JuXi1wd6gXC8ZtEVQdxjRFYnYZpUmsp7jcvl0jhe1gEpxOD7t2bVgaS5s3LtwB1A8+EKNQl0BOcezBbSGao+dcxC1mysG2nTAG8AnrClsnZbS3v3U2gEgNbFsoF3H/MTv5oshaVK9GSUKpv2QKiVIrwBMIQIXkKZavIQIWYb4gmIS/DfEExCgUTaphRapoDHBMNnSCUvCZYYQClYRi2oVTUAnQIZ+KLWkxoFmj2zZJlpsSPRDiwOVH1uoQxpDBmfBgcuKqZUloZrYXFr/AEV+yaGVjnO1cY8h+ys43abqdesKugvTgagDRvE8lsWyp6CNo4hmGIqOuDZ7YmWnWBy18kzxVRpY1zHW8JadQRqEiqN7xnfv/E3NJ0A3BrVmNm9qO4p9xWDhDiASR4STLQ6dAdx8kaAabbfaZmHYcgJefiJ1niVktn9vsO52b7PWqVJjM7L/ANt7BKtpVX4tzqdIi/xuBByg7rE3Wn7PdlG0gLab1my5eOl2X48XLfofYftBUe0FtDKDxMkeSrrMqVHw6o9zIBIgMAO8WJzDmjO4yKArArJLLN6bNMccVtIpGz2A6acFewRYKQqhVvcqrLCVaCEg2nhGuMnz4JrVqwk+Mq5iWnQ6oXsatB+z6AFMOFt4+ieUzIB4iUk7P4fMw5iXNBhtzuFxbVPgFoxRa2Z8sk3R6FMaKICmNFcUCrFfC7zWVK2FaiSCNOqxW3K/dvbhqANTEVXBrJswTq4gXga+SshjkxZTSH3ZsEOcdxETz1geQJTN1cNqGRqBeNEq2xhhhP8Ah9PMXAVX53nV73UXtLnebtNwATyrTBaZEghUZo8ZmjBK47BMVinhrgyIgm8xM36JZg82bM7KDBBAvMnmpbSqhws6XaCR4hw8W/Teq8Dh3Xc98+Q91VI0pUEY8NAgS3k0kD0BhKKjATGvX6ozEkAFxNzpyCV1ap3WRjFyEnNRK8aYAYN0kxpP+yAciKioctMVSoxZJcpWVlXYP4wqirsF8YRELalISVWaAUK5dmMHepMLlCEqdC6MyKf2eGhy8UCjmhSXNClCAx41bLsnsllbvM8wI0trP6LHsFwvonYZtqv9P1QfYJOkZHbeF7t1WmLhpcB0XyVzPE/+Yr7L2pZ9/W6n2C+QVG+N/wDMU0BZ9I/Qz6uSg06HLIHMtJSOlgHOpsOIMvIlzRaRFm8dInjJTLHBlTI6eBA3DqEDUrFxcSZuYVeXyljXGPZZDFy2wDH5jlOUloMltogAwLG9wPks9tHZ1J781SkSX6l0lvGMtp/stG9pBmxFwR7XQeOaGEA/CT9Fhl5GSXs0rHFehRgcM2hHdNaASTlA15zNlpNnbXY/w6OGo/Q71m8WHNJjTlrHJL/tgJBFj+HlzKCnLsel0brGYmyzmNx5aZChR2pmEON+PGN6VbTqzvVi2N0htQ24077ohu1hxWEe4B1viFwP90z2RjGVXBjzkJ0I0nmOGvBM4q6EUzTv2hm0EoWhgTWdlF3a3PhAHHijsHsOpBio2ObT+qebJ2aKUmczjqYgdAE0cTT2LLKq0S2Xgu6phlibkwIEngEcGoihh7Zz5D6qljs4kcT8lux4rVsxzybK31QEFWxhBhUOeSYdMgwQhsWyHeVlqhjiilybDic4Im8WWa7E4HPtHEVnX7kd20niZkpyC5osPPWPVVf4es8WMcbF2IPyaP1KaWkKGf4g4LPhc4F6Tg8dPhd8ik2wu0X3Yp1TcWDtxG6/H3W7xlAPpuYdCCPUL5UMJkc6kdWm08NyweTHSkbPGl+00tfGUje3VJ8ftlrRA0QuIyFt/i0jeo4PYJxP3YllP/3ahtDd7Wn8x+WvXNCHJ0apz4qxOMbWrUq+KdIpMY40xuOX8XMn2TfBUnOLXgktcASDuPJFbW2lg6rK2z8M4mKRAc0fd+EGWtdvIsdItrqr/wDDV5fgKQI8QL2H+lxHtC7EIKK40cmUnJ2MMNspr9W/KF5iuzdM2a4tJ3TI85WibTAEBC1G35um/AACT8/WErhF+g8mjBY/BupOLXc8p3OAOoUcD8YW42xgW1KWUwDEt5Hd+ixOEYRUgiCJBHMLNOHFlsXZ1UeI9VZRaoVPiPVW0lUMMav8MIZF1R92EKAiE9aprxoU4UCeM1C+i9iRap/R9V88YLhfRexgtU/p+qHsEujPdqm/+oq+X+kL45W+Op/OV9o7Vj/1FXoP9AXw6rW+8q/8x30TREl0j70Gw8jdu8+KHy5SW85HQ3si6jJI3GL/AKKqq+4DgP3zXHZvQDVBNhv8uvQQlmPmocjdGxJ4wndYQdwBtPApbUGR0jQnw8zF/VKMhVitYnSIPG0XSDaNHxEjX8UCD1C0uPoXzt0OqVYkAwTrz3g8Z1TRYWI2YiP3o39SvX1p5H1/eqsxFAAmOpHsqTSvv/cn6q2LroQBrsBOUkg6tdbXl6xHRCCs5rhmaJn4pIE8+CZ92SSY4yDxGh8whMdTgh34TZw9j7j0T3YjR9A7KdoQ4tpVCJIAY7n+U/QrZUgvjOHJDTc+EtIO8A6Gd/8AZfX+zeI76nSfrIv1bY68wVfhk5aZXkVbG2MdkYI3RPRI/tHdVLXY+45HenWIqghzT0PpqsxXqRNN9oNjy3OH70XXxx1Rhky/akZxUbo6x68UPUOYQfIqmi8kupH8uYdQRpyIJKupXTONAs9vliUJ2d2jRoPxPeVGMHeMN3C5c3Ro1JtoEs7QVHvfTwtF2V1S73DVrBqfkflxXjOxOEAyuL3O3kvMyelgleyDvanaXEO8OFptaP8A5KoJP9LAfc+SSU2OcM2JdmqgmXMaGy03gjiOS92fhH4Os2m5xfh6lmEx4HSAASN0kC3EG0GdU7Z1N1y26ZONU0Ta2mZKhhpfEPyASS6AOgPP96IrHbHdVYcxIFmtG4ZiBOXSwMp9hsCA/LBygyBr6n6IytRl2TcLu5k6BCMYY3cEGU5TVSZlq3ZqhQYx9NhBba1yQ4ZTPkV5/hdTjCub+WtUE8ZINvILSYumSSBo0SepE/Ie6A/w8oZcHTP5n1Xejy3/APKMpX2KkPm00LimfeAcG+7tPUBM8vihClgdWcTo3KI4kAm//WkTGYPiaU23fMrH7YwmTEBw0cDPUWPyhbnEmOqzXaBkMz72kfOyTIriNB0zK1PiPVXUUM9/iKupOWQuG1X+GEPCIq/wwh1AkmqSiF6iEmzUdV9E7HG1Qfy/VfOQbp5hTUD6b9zSCQDEjgYSvsDVoO7X/wAep0H+gL4FiHfe1v8AmO9gvsO2dsd7iKnhytgam8xC+PYime9qn/7D7BPErn0foeqZVOJbmpu4tuD0VriJnjcfpdRxDfA/ouOdAHYQ5glovbzQeLMZSbxaEZXb91a8XQ72hzZGh5/LXzSjIBq0yfFTvaS0pFiRYkAi8FvA+6fZi06/34k/RLdtACq2NXAgjykFRBEdeAQJB/XhzVTmXtoRby1n1+S8xYDHCTEm3pdSdbQ63E6f7fqrBQRnExY5T03FdiaEhw1a4Tb8JnXmNCrTE8JLfc2+SgXGJ4H5bwiAHwwjLmFiMrp3XsV9J7A7RzRRt4A704epWCZTBMXg2k7gOaI2XjX0arXg+Jp9Y49R7q3Fk4ysScOUaPq+0AQc7b8RxF7dbpLj6IqNkXG78zenHomWF2i2tTbUafCSJG9rpFvn6KnGYbVwsd8aHmu7jkqTRzZLdMQYCpFSmx/xZi1hGhDmlpaeGuiaUGw4hAYizmP1yvYXdA4SfIXTOuIeVbN3TEiZvFsdS2i2pBLX0ywEAkNJJueAnKP6lq6WHAEBU4fxuNMgS5rwJMXAzt63aB5q/DVw4AjeqfY4k7Y4R7qVMU2kuNS8bg1j3F3o35rTtbaVUSC12lmkjrp9Y811R5NhpI90PZAmk0CTwVGDEguP4iT5bl1Z/hPmptEM/pUIDVx9xUdvc159QQPlCG7HiMJhx/lJ/wCp7j9UZjLUT/LH0QXZJ00KTtzaTAOoaCfmY8kasA9mXFUYOnZzt73Ezy+EAeTQqto4oUaFSqdzSflYKezGnumAm4aJjpxUS1ZGeYlm7ekm1cLmaWcffd81o6lMAW/ul+IoKaqgo+Ou2jUJP3LldTxtfdSK2GNwwa94gaAqqowX/lCxPTNHERHG4otA7sAL1n2o7gFoHi3ouG9CycRF3GI/MFW7A13AnvYjknriqWus/oiShVS2dXAD++kZhIjmt3RPhHRZelU+6/qHutJQ+EdEGMjL7UwoqVngzEbkiqdn6U6LWd2Pvnb5+iVv3dEUK0vZ9DacvhIkfQ81a0DXdwmVA1d438eCkyxI3RI81yTYDtplpIAkW+apqU27jl5bkTUcZsqa7c7T+YJQgNeiJBNxvsddxSnGUctUVCM0/IJvQrlzbyenoVRXYMpE2I1m8cEo5ltuYEnxt8Q1E8N4S2m6RBsZt14enstTUptNmy08D8JWf2jhckyIE3jUH8wKsi/QGgbEWaSBpfzH9lSxwILhBBPnPDir3nwE7x87a+fBBUD4pEjMAYEESLGR6aJhS82JI/M7id/DRe974jMxAMg9JkeSjVduOjoLf5uB66zzVb3eIdPrH7uoQ1XZvaQovh0mm8CbejgOS2VHECS2Za4S07iDwXy/DnKALcf2FpNh7SEGm8kCc1Nx3Em7QeB1/wB1u8PyOL4S6M+fFf6l2NsdQgkbiqcBtDOMrvjYS13OLT56+aJr1JEHyWY2hV7rEA7qgn+ptj8sq7EVejnvWzVmxDhq0gjqDIV1Gnle5g0mW/yuuPkUrweMDhBKOxLiBTqA6DK7+k/oWpWmnQ1jBzfC7o3/AMjAur1w0ho1JQmKxcUajhu7v/yD9EJgK4c6Sbn2Cij2wNjcOcWmRrA/VX4irDVS0zC7EVBMJQirbNSvVZ3dBpk6XAJi5guIA0KM7LUow9Jsg+ETBkdJCooh4rsqd80MnKGHiWmcw1JuDqod0MPjYY6n3dSkCW0/hDmEtzEbiRl65UHJXxX+7Il7B/8AEWqX0Ps9N0VHuaGAficHZoJ3NhpJPAc1otnktptaTLoGYjSY3LKVYxDn1Cf4T2uYeGUEH1BKd4PHgBrWuzE7mt9ybBGLUlS9Eaa2Osk7yhcVQMfF5b132v8ACAS7fAEDq428tV549cgvqS6fohTJZmtqU5Dn8oPklmJJh0flC2NXAlzS7ICBqRMfMQsTtDF02GC4NzNloecpidIO8LNlhTsvhLQQT4fIKt2IbMZhPBBYzaLMtqjLj8wWV2lUzP8ACSX7nDRUt0M5UbR7lQ13x9FmtnbZe093VuRaU5p4ic0bwmoClYRQd9z/AFD3WowzvCOix1Gr4I5habC4iw6KDIHafDW6/QJQ86dEzwWIAqPlmds3be4jkvoGF7N4R7GubSBBAInmoBsSFxAzAmD6hGUagdobxCX4mqYLt7R66oZmLcYqNXIN1Dp1/wB/3VLrNeTwVtKq14DuO8b17l0B+HW6gBdhqPgdvMINrbdNRw+e5H3pniHSQoVsOCczXXOo49Uo1inFU7fv9fNL9qQWsBF3W8uKeV6EiLeu7egdoULteN1m9OKgTJVAWuyOG4g9NxS9wjjIsL8bn6LT7YxDXDSTvA9wsi+r8Q4H6fvcrY7Qj0EYh0iDobRw3jdrKEOJ8Q0NtRvXlWrb287KOzsGXnO74fwgWzcSeSsjEW7ehxRY90ECfMR801obJe+3eAOIkNG/kDFz6KGBpaDcP3ZOqFHeLR6ypSRaonUcY3LDzlytEE2zRbU6FIe11fPSZVpePu3S7KQYaQZJg6TCe4io1rTmE2mGifZKq2Fzy6m12cNMtDSC8GxaWmx811fE8pN8ZPfow+T49LlH+QXC46WAg3T3ZO2szH0XCTGdvPKPGP8Apv8A0Jb2V2OWOH2ql93lIgvg5rR8JnihtqijTq5murU25vAQ1j9NPGKgg9QujJqWjAk1s0FPEZqFQH8T6YHRoeT7tQuEqEODgNJHrGqEw+IqVwO7w1QtBOWPC0km5ccsE6TBAsFrHvr1RTbUo06LWiDlgyIvAGglI8nDbQyg5OkU4WtVdpDRxP0R9BkmJnmiW0BTZxga6ryngyPvGnymxCxPzE5aWjX+UfHvYDtPZBd46bWF8QQ4kBw6gGDYXg2t0TjZj6AfUquaa1TcyctNjRZrSbmJN+Litd34AzHQLLY7F973ruUDorpzqNlEIXKgLY9T7qt0TzYVCGCo74YGUcTxSDYdMvZVa0STb9nctFh64pUgx7g8t3N0HIu3rNjkoytl0k2qQ3dmNmQ3i6PbclmKxNFp8RNV/NxyDy0Poo4Go7FseRVawNMBrb3jeJWMr4x+ExDTWAe1jtws4cb+3JNLyG9R0NHAluQ/2l2jeTk7zKNzG2EdEo/4EcZmeJfltLi0Ab4Fk42+WY6i1zB8QljgNOYP0SPsXXr0qlXDVDAPiYdxIsRPSCsvO7+TR+Gk/oAp9maRJa4Q4WIgfQq+n2PpkwCfKf1TTaNB4qZm6/i58IWkwWFDGganeeaiyNiSxRi9mLxGzXNb3FCg5+WxfqDJDjBNtd6vw/ZvEu1DKY5mT6BbcL0BHkV0ZvCdkwP4lUn+UR7ytj2d2PQbMsDjFs1/dCBqPwVTLJ5I2BopxdFgc7KA0TuARWzqlQMhjgWyYkJfiny74T6H6IijjSGgCw/lI+iKIxNjIa0uM8AOJPuqcNhstMNdqdyIxdPlYPBk8+A43UT8TjyXLNpVsapDn0z8Igcgb3CcNvLXTI9ORSDBPk1nf5vYD+6O2Tii/XUeHqIsSoRoMqkyHWtaFSabHzAgwrQJ9t3RU1RFxqL7ugSkA6T4OQhpde68eIMHyA3Eqe1mjwPGpMKNcRBjUIMImdQAcAWAkXlKu0eyWVHtewZXGxI9jxWiqMv+/nxS2uM2YkkFpBG7rZFNoLVmbp7HDT4m5uu8ossY2AG9OHlwRmIxNzwVH2R78pDXBp/EQQD03FOuUgVRAViN8dPYcSvX7baPA6sxjpgib33G2q0GAw7D4Q0GNSRou2jhxZ2VvUC6sUPkamAUmNgGSSYgmRPqLKZxIpkb4PEW5HgvHu3IV5zSy0iCJ1IOkHjaEHHi7QGtDqrVzNhpE6g6wdxhe7FwLQSSwC9zrPTesXtKkTVaQ97DBnKcsBtyTGuqc4LbIyiKmaOd/MLvYsnPGpL2cmceM2j6FSqDyUcGSfE4QT8PJu4H381iaW3wbZr8OPRa3D1e8aPFB48Fm8ptJI0+Mk7Ye6qA7K62bTgeSrDjRMG7Dp/lP6L2z293UAzR68x+7JdicQZ+zvdeJafzAfX3WM1JWT29gKr6TnUt1yNAeMFIcJhBTa4VHZi7VrfYu/RaHZOIqmm+mbs+EGPEBFxO9VUtjUxMyepiOVlfHI+KiynJjVuQofi4GVoDG/lbYefFS2ftFtNxJYHSIvu6Js7ZdHh8yof8KpHRp+abTKk6E1LBgVXV6DspPxgWDuo+qNx2yKWLokP3jdYt6FTxWy3DxU23B0JsRwVZrEC7HMJteYJ4Aj2sll47auLv+y6OdN09CjsdgX4QPwjnZ6cl1InUTqOm/wAyi8Zgj3jXiA6UU2o0eIzI0H90NtftFhqNMvqOh24C5PIKjjKT+y+1FfQZSpS6bc4TNoWP/wAPsTWrHEVqrXND3tNMHQMiwHTf1W2YxWyxvG6ZleTntEQFIKYYpZEBSARNAqsU1bTCIGRevJVjgokKEF1YAls3/uIn+6Gc/UnUeF0cRoeVvdcuXNZsQBstp7t06lzvUk/qOaLpO7lpeRzM9Z/crlygRtQqCo0VGaOEx/ZV1Bv/AEmy5coxAXaFM5GCN8+m9VOGdkTBHsvFyVjroCq8DY/TqlWJqZcxiQbfviuXKBEmLr6kC+4EG56BbHZ2OxOJot76mKIAiLSY3ho0XLlpx6QF2VV64Z4LDhGpJ9yr208zPFYndwHNcuRY4nxVPK4gGUHWeM435W3+RHmuXJZ9CsdbE2YxzQ6rTY5xmC5oJDToLpjU7MYV/wAVCkTxyD9Fy5bY3FJIxS2wDE9h8M7SmB0kIEbGxOHcO4qPIH4XHMI4S68LlyLm62SKSehrUxuIe1rTRcxwIOYHhwO5X4fB1S/O4Eu046rlybG18BnKXyOKLHCxB9vZTcBwXi5PLZWcH8lY2oY0XLksVsjI94eCHxFAO1H75rlysTraBViLEdnaZLi11Zma7gxwyzMkhrw4AnkgaHY3DB/eFrnv/NWcX+gEALlyH40rsbgqo0eGweUAekCB5AIxjF6uVMtu2FFghSDhxXLkoT0PCk08AVy5QBIg8Pmo5Hcly5EB/9k=;clipPath=inset(0% 28.67% 1.19% 0.33%);" vertex="1" parent="3rs9vHmOBtsUDxQql4TI-42">
          <mxGeometry x="-40" y="60" width="89.82" height="70" as="geometry" />
        </mxCell>
        <mxCell id="3rs9vHmOBtsUDxQql4TI-50" value="" style="endArrow=classic;html=1;rounded=0;exitX=1;exitY=0.5;exitDx=0;exitDy=0;strokeWidth=6;" edge="1" parent="1">
          <mxGeometry width="50" height="50" relative="1" as="geometry">
            <mxPoint x="680" y="280" as="sourcePoint" />
            <mxPoint x="730" y="280.5" as="targetPoint" />
          </mxGeometry>
        </mxCell>
        <mxCell id="3rs9vHmOBtsUDxQql4TI-51" value="" style="endArrow=classic;html=1;rounded=0;exitX=1;exitY=0.5;exitDx=0;exitDy=0;strokeWidth=6;" edge="1" parent="1">
          <mxGeometry width="50" height="50" relative="1" as="geometry">
            <mxPoint x="860" y="280" as="sourcePoint" />
            <mxPoint x="910" y="280.5" as="targetPoint" />
          </mxGeometry>
        </mxCell>
      </root>
    </mxGraphModel>
  </diagram>
</mxfile>
